# Blender v3.2.2 OBJ File: 'tutorial.blend'
# www.blender.org
mtllib StatsValueKeys.mtl
o StatsValueKeys_Text.037
v 499.435242 200.569748 -500.000000
v 499.239502 200.569748 -500.000000
v 499.266571 200.602356 -500.000000
v 499.290863 200.632492 -500.000000
v 499.312439 200.660431 -500.000000
v 499.331390 200.686447 -500.000000
v 499.347809 200.710815 -500.000000
v 499.361755 200.733810 -500.000000
v 499.373322 200.755722 -500.000000
v 499.382599 200.776810 -500.000000
v 499.389679 200.797348 -500.000000
v 499.394653 200.817627 -500.000000
v 499.397552 200.837921 -500.000000
v 499.398499 200.858505 -500.000000
v 499.397186 200.881500 -500.000000
v 499.393341 200.903152 -500.000000
v 499.387085 200.923325 -500.000000
v 499.378571 200.941910 -500.000000
v 499.367859 200.958786 -500.000000
v 499.355103 200.973816 -500.000000
v 499.340424 200.986862 -500.000000
v 499.323944 200.997833 -500.000000
v 499.305786 201.006577 -500.000000
v 499.286072 201.012985 -500.000000
v 499.264954 201.016907 -500.000000
v 499.242493 201.018250 -500.000000
v 499.232239 201.017914 -500.000000
v 499.222107 201.016937 -500.000000
v 499.212036 201.015274 -500.000000
v 499.202026 201.012939 -500.000000
v 499.192078 201.009933 -500.000000
v 499.182129 201.006256 -500.000000
v 499.172180 201.001877 -500.000000
v 499.162231 200.996811 -500.000000
v 499.152222 200.991043 -500.000000
v 499.142151 200.984573 -500.000000
v 499.131989 200.977386 -500.000000
v 499.121765 200.969498 -500.000000
v 499.121765 200.877243 -500.000000
v 499.131989 200.889633 -500.000000
v 499.142090 200.900589 -500.000000
v 499.152039 200.910187 -500.000000
v 499.161865 200.918472 -500.000000
v 499.171570 200.925537 -500.000000
v 499.181183 200.931442 -500.000000
v 499.190704 200.936249 -500.000000
v 499.200134 200.940033 -500.000000
v 499.209503 200.942856 -500.000000
v 499.218811 200.944778 -500.000000
v 499.228058 200.945892 -500.000000
v 499.237244 200.946243 -500.000000
v 499.249542 200.945435 -500.000000
v 499.261200 200.943039 -500.000000
v 499.272156 200.939163 -500.000000
v 499.282349 200.933868 -500.000000
v 499.291626 200.927231 -500.000000
v 499.299957 200.919342 -500.000000
v 499.307251 200.910294 -500.000000
v 499.313416 200.900146 -500.000000
v 499.318359 200.888977 -500.000000
v 499.321991 200.876892 -500.000000
v 499.324219 200.863953 -500.000000
v 499.325012 200.850250 -500.000000
v 499.324738 200.839905 -500.000000
v 499.324005 200.830154 -500.000000
v 499.322754 200.820908 -500.000000
v 499.321014 200.812027 -500.000000
v 499.318756 200.803406 -500.000000
v 499.316010 200.794937 -500.000000
v 499.312744 200.786499 -500.000000
v 499.308990 200.777969 -500.000000
v 499.304749 200.769257 -500.000000
v 499.299988 200.760208 -500.000000
v 499.294739 200.750748 -500.000000
v 499.289001 200.740753 -500.000000
v 499.277435 200.721817 -500.000000
v 499.264648 200.702271 -500.000000
v 499.250793 200.682220 -500.000000
v 499.236084 200.661865 -500.000000
v 499.220734 200.641312 -500.000000
v 499.204895 200.620743 -500.000000
v 499.188812 200.600311 -500.000000
v 499.172668 200.580139 -500.000000
v 499.156647 200.560394 -500.000000
v 499.140930 200.541229 -500.000000
v 499.125732 200.522797 -500.000000
v 499.111237 200.505249 -500.000000
v 499.111237 200.500000 -500.000000
v 499.435242 200.500000 -500.000000
v 498.881012 200.493256 -500.000000
v 498.933502 200.493256 -500.000000
v 499.080505 201.018250 -500.000000
v 499.028015 201.018250 -500.000000
v 498.849487 200.569748 -500.000000
v 498.653748 200.569748 -500.000000
v 498.680817 200.602356 -500.000000
v 498.705109 200.632492 -500.000000
v 498.726685 200.660431 -500.000000
v 498.745636 200.686447 -500.000000
v 498.762054 200.710815 -500.000000
v 498.776001 200.733810 -500.000000
v 498.787567 200.755722 -500.000000
v 498.796875 200.776810 -500.000000
v 498.803925 200.797348 -500.000000
v 498.808899 200.817627 -500.000000
v 498.811798 200.837921 -500.000000
v 498.812744 200.858505 -500.000000
v 498.811432 200.881500 -500.000000
v 498.807587 200.903152 -500.000000
v 498.801361 200.923325 -500.000000
v 498.792816 200.941910 -500.000000
v 498.782104 200.958786 -500.000000
v 498.769348 200.973816 -500.000000
v 498.754669 200.986862 -500.000000
v 498.738190 200.997833 -500.000000
v 498.720032 201.006577 -500.000000
v 498.700348 201.012985 -500.000000
v 498.679199 201.016907 -500.000000
v 498.656738 201.018250 -500.000000
v 498.646484 201.017914 -500.000000
v 498.636353 201.016937 -500.000000
v 498.626282 201.015274 -500.000000
v 498.616272 201.012939 -500.000000
v 498.606323 201.009933 -500.000000
v 498.596375 201.006256 -500.000000
v 498.586426 201.001877 -500.000000
v 498.576477 200.996811 -500.000000
v 498.566467 200.991043 -500.000000
v 498.556396 200.984573 -500.000000
v 498.546265 200.977386 -500.000000
v 498.536011 200.969498 -500.000000
v 498.536011 200.877243 -500.000000
v 498.546234 200.889633 -500.000000
v 498.556335 200.900589 -500.000000
v 498.566284 200.910187 -500.000000
v 498.576111 200.918472 -500.000000
v 498.585815 200.925537 -500.000000
v 498.595428 200.931442 -500.000000
v 498.604950 200.936249 -500.000000
v 498.614380 200.940033 -500.000000
v 498.623749 200.942856 -500.000000
v 498.633057 200.944778 -500.000000
v 498.642303 200.945892 -500.000000
v 498.651489 200.946243 -500.000000
v 498.663788 200.945435 -500.000000
v 498.675446 200.943039 -500.000000
v 498.686401 200.939163 -500.000000
v 498.696594 200.933868 -500.000000
v 498.705872 200.927231 -500.000000
v 498.714233 200.919342 -500.000000
v 498.721497 200.910294 -500.000000
v 498.727661 200.900146 -500.000000
v 498.732605 200.888977 -500.000000
v 498.736237 200.876892 -500.000000
v 498.738495 200.863953 -500.000000
v 498.739258 200.850250 -500.000000
v 498.739014 200.839905 -500.000000
v 498.738251 200.830154 -500.000000
v 498.737000 200.820908 -500.000000
v 498.735260 200.812027 -500.000000
v 498.733002 200.803406 -500.000000
v 498.730255 200.794937 -500.000000
v 498.726990 200.786499 -500.000000
v 498.723236 200.777969 -500.000000
v 498.718994 200.769257 -500.000000
v 498.714264 200.760208 -500.000000
v 498.709015 200.750748 -500.000000
v 498.703247 200.740753 -500.000000
v 498.691681 200.721817 -500.000000
v 498.678894 200.702271 -500.000000
v 498.665039 200.682220 -500.000000
v 498.650330 200.661865 -500.000000
v 498.634979 200.641312 -500.000000
v 498.619171 200.620743 -500.000000
v 498.603058 200.600311 -500.000000
v 498.586914 200.580139 -500.000000
v 498.570892 200.560394 -500.000000
v 498.555176 200.541229 -500.000000
v 498.539978 200.522797 -500.000000
v 498.525513 200.505249 -500.000000
v 498.525513 200.500000 -500.000000
v 498.849487 200.500000 -500.000000
vt 0.295455 0.000000
vt 0.272727 0.000000
vt 0.284091 0.000000
vt 0.306818 0.000000
vt 0.318182 0.000000
vt 0.261364 0.000000
vt 0.329545 0.000000
vt 0.250000 0.000000
vt 0.340909 0.000000
vt 0.352273 0.000000
vt 0.238636 0.000000
vt 0.363636 0.000000
vt 0.375000 0.000000
vt 0.227273 0.000000
vt 0.386364 0.000000
vt 0.397727 0.000000
vt 0.215909 0.000000
vt 0.409091 0.000000
vt 0.420455 0.000000
vt 0.204545 0.000000
vt 0.431818 0.000000
vt 0.443182 0.000000
vt 0.454545 0.000000
vt 0.465909 0.000000
vt 0.477273 0.000000
vt 0.488636 0.000000
vt 0.500000 0.000000
vt 0.511364 0.000000
vt 0.522727 0.000000
vt 0.534091 0.000000
vt 0.545455 0.000000
vt 0.556818 0.000000
vt 0.568182 0.000000
vt 0.193182 0.000000
vt 0.579545 0.000000
vt 0.590909 0.000000
vt 0.602273 0.000000
vt 0.181818 0.000000
vt 0.613636 0.000000
vt 0.625000 0.000000
vt 0.636364 0.000000
vt 0.170455 0.000000
vt 0.647727 0.000000
vt 0.659091 0.000000
vt 0.159091 0.000000
vt 0.670455 0.000000
vt 0.681818 0.000000
vt 0.147727 0.000000
vt 0.693182 0.000000
vt 0.704545 0.000000
vt 0.136364 0.000000
vt 0.715909 0.000000
vt 0.727273 0.000000
vt 0.125000 0.000000
vt 0.738636 0.000000
vt 0.750000 0.000000
vt 0.113636 0.000000
vt 0.761364 0.000000
vt 0.772727 0.000000
vt 0.102273 0.000000
vt 0.784091 0.000000
vt 0.795455 0.000000
vt 0.806818 0.000000
vt 0.090909 0.000000
vt 0.818182 0.000000
vt 0.829545 0.000000
vt 0.079545 0.000000
vt 0.840909 0.000000
vt 0.852273 0.000000
vt 0.068182 0.000000
vt 0.863636 0.000000
vt 0.056818 0.000000
vt 0.875000 0.000000
vt 0.045455 0.000000
vt 0.886364 0.000000
vt 0.897727 0.000000
vt 0.034091 0.000000
vt 0.909091 0.000000
vt 0.022727 0.000000
vt 0.920455 0.000000
vt 0.011364 0.000000
vt 0.931818 0.000000
vt 0.943182 0.000000
vt 0.000000 0.000000
vt 1.000000 0.000000
vt 0.954545 0.000000
vt 0.965909 0.000000
vt 0.977273 0.000000
vt 0.988636 0.000000
vt 0.000000 0.000000
vt 0.666667 0.000000
vt 1.000000 0.000000
vt 0.333333 0.000000
vt 0.295455 0.000000
vt 0.272727 0.000000
vt 0.284091 0.000000
vt 0.306818 0.000000
vt 0.318182 0.000000
vt 0.261364 0.000000
vt 0.329545 0.000000
vt 0.250000 0.000000
vt 0.340909 0.000000
vt 0.352273 0.000000
vt 0.238636 0.000000
vt 0.363636 0.000000
vt 0.375000 0.000000
vt 0.227273 0.000000
vt 0.386364 0.000000
vt 0.397727 0.000000
vt 0.215909 0.000000
vt 0.409091 0.000000
vt 0.420455 0.000000
vt 0.204545 0.000000
vt 0.431818 0.000000
vt 0.443182 0.000000
vt 0.454545 0.000000
vt 0.465909 0.000000
vt 0.477273 0.000000
vt 0.488636 0.000000
vt 0.500000 0.000000
vt 0.511364 0.000000
vt 0.522727 0.000000
vt 0.534091 0.000000
vt 0.545455 0.000000
vt 0.556818 0.000000
vt 0.568182 0.000000
vt 0.193182 0.000000
vt 0.579545 0.000000
vt 0.590909 0.000000
vt 0.602273 0.000000
vt 0.181818 0.000000
vt 0.613636 0.000000
vt 0.625000 0.000000
vt 0.636364 0.000000
vt 0.170455 0.000000
vt 0.647727 0.000000
vt 0.659091 0.000000
vt 0.159091 0.000000
vt 0.670455 0.000000
vt 0.681818 0.000000
vt 0.147727 0.000000
vt 0.693182 0.000000
vt 0.704545 0.000000
vt 0.136364 0.000000
vt 0.715909 0.000000
vt 0.727273 0.000000
vt 0.125000 0.000000
vt 0.738636 0.000000
vt 0.750000 0.000000
vt 0.113636 0.000000
vt 0.761364 0.000000
vt 0.772727 0.000000
vt 0.102273 0.000000
vt 0.784091 0.000000
vt 0.795455 0.000000
vt 0.806818 0.000000
vt 0.090909 0.000000
vt 0.818182 0.000000
vt 0.829545 0.000000
vt 0.079545 0.000000
vt 0.840909 0.000000
vt 0.852273 0.000000
vt 0.068182 0.000000
vt 0.863636 0.000000
vt 0.056818 0.000000
vt 0.875000 0.000000
vt 0.045455 0.000000
vt 0.886364 0.000000
vt 0.897727 0.000000
vt 0.034091 0.000000
vt 0.909091 0.000000
vt 0.022727 0.000000
vt 0.920455 0.000000
vt 0.011364 0.000000
vt 0.931818 0.000000
vt 0.943182 0.000000
vt 0.000000 0.000000
vt 1.000000 0.000000
vt 0.954545 0.000000
vt 0.965909 0.000000
vt 0.977273 0.000000
vt 0.988636 0.000000
vn 0.0000 0.0000 1.0000
usemtl None
s off
f 27/1/1 25/2/1 26/3/1
f 28/4/1 25/2/1 27/1/1
f 29/5/1 25/2/1 28/4/1
f 29/5/1 24/6/1 25/2/1
f 30/7/1 24/6/1 29/5/1
f 30/7/1 23/8/1 24/6/1
f 31/9/1 23/8/1 30/7/1
f 32/10/1 23/8/1 31/9/1
f 32/10/1 22/11/1 23/8/1
f 33/12/1 22/11/1 32/10/1
f 34/13/1 22/11/1 33/12/1
f 34/13/1 21/14/1 22/11/1
f 35/15/1 21/14/1 34/13/1
f 36/16/1 21/14/1 35/15/1
f 36/16/1 20/17/1 21/14/1
f 37/18/1 20/17/1 36/16/1
f 38/19/1 20/17/1 37/18/1
f 38/19/1 19/20/1 20/17/1
f 39/21/1 40/22/1 38/19/1
f 40/22/1 41/23/1 38/19/1
f 41/23/1 42/24/1 38/19/1
f 42/24/1 43/25/1 38/19/1
f 43/25/1 44/26/1 38/19/1
f 44/26/1 45/27/1 38/19/1
f 45/27/1 46/28/1 38/19/1
f 46/28/1 47/29/1 38/19/1
f 47/29/1 48/30/1 38/19/1
f 48/30/1 49/31/1 38/19/1
f 49/31/1 50/32/1 38/19/1
f 50/32/1 19/20/1 38/19/1
f 50/32/1 51/33/1 19/20/1
f 51/33/1 18/34/1 19/20/1
f 52/35/1 18/34/1 51/33/1
f 53/36/1 18/34/1 52/35/1
f 54/37/1 18/34/1 53/36/1
f 54/37/1 17/38/1 18/34/1
f 55/39/1 17/38/1 54/37/1
f 56/40/1 17/38/1 55/39/1
f 57/41/1 17/38/1 56/40/1
f 57/41/1 16/42/1 17/38/1
f 58/43/1 16/42/1 57/41/1
f 59/44/1 16/42/1 58/43/1
f 59/44/1 15/45/1 16/42/1
f 60/46/1 15/45/1 59/44/1
f 61/47/1 15/45/1 60/46/1
f 61/47/1 14/48/1 15/45/1
f 62/49/1 14/48/1 61/47/1
f 63/50/1 14/48/1 62/49/1
f 63/50/1 13/51/1 14/48/1
f 64/52/1 13/51/1 63/50/1
f 65/53/1 13/51/1 64/52/1
f 65/53/1 12/54/1 13/51/1
f 66/55/1 12/54/1 65/53/1
f 67/56/1 12/54/1 66/55/1
f 67/56/1 11/57/1 12/54/1
f 68/58/1 11/57/1 67/56/1
f 69/59/1 11/57/1 68/58/1
f 69/59/1 10/60/1 11/57/1
f 70/61/1 10/60/1 69/59/1
f 71/62/1 10/60/1 70/61/1
f 72/63/1 10/60/1 71/62/1
f 72/63/1 9/64/1 10/60/1
f 73/65/1 9/64/1 72/63/1
f 74/66/1 9/64/1 73/65/1
f 74/66/1 8/67/1 9/64/1
f 75/68/1 8/67/1 74/66/1
f 76/69/1 8/67/1 75/68/1
f 76/69/1 7/70/1 8/67/1
f 77/71/1 7/70/1 76/69/1
f 77/71/1 6/72/1 7/70/1
f 78/73/1 6/72/1 77/71/1
f 78/73/1 5/74/1 6/72/1
f 79/75/1 5/74/1 78/73/1
f 80/76/1 5/74/1 79/75/1
f 80/76/1 4/77/1 5/74/1
f 81/78/1 4/77/1 80/76/1
f 81/78/1 3/79/1 4/77/1
f 82/80/1 3/79/1 81/78/1
f 82/80/1 2/81/1 3/79/1
f 83/82/1 2/81/1 82/80/1
f 84/83/1 2/81/1 83/82/1
f 84/83/1 1/84/1 2/81/1
f 84/83/1 89/85/1 1/84/1
f 85/86/1 89/85/1 84/83/1
f 86/87/1 89/85/1 85/86/1
f 87/88/1 89/85/1 86/87/1
f 88/89/1 89/85/1 87/88/1
f 90/90/1 92/91/1 93/92/1
f 90/90/1 91/93/1 92/91/1
f 120/94/1 118/95/1 119/96/1
f 121/97/1 118/95/1 120/94/1
f 122/98/1 118/95/1 121/97/1
f 122/98/1 117/99/1 118/95/1
f 123/100/1 117/99/1 122/98/1
f 123/100/1 116/101/1 117/99/1
f 124/102/1 116/101/1 123/100/1
f 125/103/1 116/101/1 124/102/1
f 125/103/1 115/104/1 116/101/1
f 126/105/1 115/104/1 125/103/1
f 127/106/1 115/104/1 126/105/1
f 127/106/1 114/107/1 115/104/1
f 128/108/1 114/107/1 127/106/1
f 129/109/1 114/107/1 128/108/1
f 129/109/1 113/110/1 114/107/1
f 130/111/1 113/110/1 129/109/1
f 131/112/1 113/110/1 130/111/1
f 131/112/1 112/113/1 113/110/1
f 132/114/1 133/115/1 131/112/1
f 133/115/1 134/116/1 131/112/1
f 134/116/1 135/117/1 131/112/1
f 135/117/1 136/118/1 131/112/1
f 136/118/1 137/119/1 131/112/1
f 137/119/1 138/120/1 131/112/1
f 138/120/1 139/121/1 131/112/1
f 139/121/1 140/122/1 131/112/1
f 140/122/1 141/123/1 131/112/1
f 141/123/1 142/124/1 131/112/1
f 142/124/1 143/125/1 131/112/1
f 143/125/1 112/113/1 131/112/1
f 143/125/1 144/126/1 112/113/1
f 144/126/1 111/127/1 112/113/1
f 145/128/1 111/127/1 144/126/1
f 146/129/1 111/127/1 145/128/1
f 147/130/1 111/127/1 146/129/1
f 147/130/1 110/131/1 111/127/1
f 148/132/1 110/131/1 147/130/1
f 149/133/1 110/131/1 148/132/1
f 150/134/1 110/131/1 149/133/1
f 150/134/1 109/135/1 110/131/1
f 151/136/1 109/135/1 150/134/1
f 152/137/1 109/135/1 151/136/1
f 152/137/1 108/138/1 109/135/1
f 153/139/1 108/138/1 152/137/1
f 154/140/1 108/138/1 153/139/1
f 154/140/1 107/141/1 108/138/1
f 155/142/1 107/141/1 154/140/1
f 156/143/1 107/141/1 155/142/1
f 156/143/1 106/144/1 107/141/1
f 157/145/1 106/144/1 156/143/1
f 158/146/1 106/144/1 157/145/1
f 158/146/1 105/147/1 106/144/1
f 159/148/1 105/147/1 158/146/1
f 160/149/1 105/147/1 159/148/1
f 160/149/1 104/150/1 105/147/1
f 161/151/1 104/150/1 160/149/1
f 162/152/1 104/150/1 161/151/1
f 162/152/1 103/153/1 104/150/1
f 163/154/1 103/153/1 162/152/1
f 164/155/1 103/153/1 163/154/1
f 165/156/1 103/153/1 164/155/1
f 165/156/1 102/157/1 103/153/1
f 166/158/1 102/157/1 165/156/1
f 167/159/1 102/157/1 166/158/1
f 167/159/1 101/160/1 102/157/1
f 168/161/1 101/160/1 167/159/1
f 169/162/1 101/160/1 168/161/1
f 169/162/1 100/163/1 101/160/1
f 170/164/1 100/163/1 169/162/1
f 170/164/1 99/165/1 100/163/1
f 171/166/1 99/165/1 170/164/1
f 171/166/1 98/167/1 99/165/1
f 172/168/1 98/167/1 171/166/1
f 173/169/1 98/167/1 172/168/1
f 173/169/1 97/170/1 98/167/1
f 174/171/1 97/170/1 173/169/1
f 174/171/1 96/172/1 97/170/1
f 175/173/1 96/172/1 174/171/1
f 175/173/1 95/174/1 96/172/1
f 176/175/1 95/174/1 175/173/1
f 177/176/1 95/174/1 176/175/1
f 177/176/1 94/177/1 95/174/1
f 177/176/1 182/178/1 94/177/1
f 178/179/1 182/178/1 177/176/1
f 179/180/1 182/178/1 178/179/1
f 180/181/1 182/178/1 179/180/1
f 181/182/1 182/178/1 180/181/1
