# Blender v3.2.2 OBJ File: 'tutorial.blend'
# www.blender.org
mtllib StatsValueDoors5.mtl
o StatsValueDoors5_Text.046
v 499.388763 200.261505 -500.000000
v 499.161499 200.261505 -500.000000
v 499.161499 199.995255 -500.000000
v 499.188660 200.000397 -500.000000
v 499.213837 200.002487 -500.000000
v 499.236969 200.001755 -500.000000
v 499.257965 199.998413 -500.000000
v 499.276764 199.992706 -500.000000
v 499.293304 199.984848 -500.000000
v 499.307495 199.975067 -500.000000
v 499.319275 199.963577 -500.000000
v 499.328552 199.950638 -500.000000
v 499.335297 199.936447 -500.000000
v 499.339386 199.921249 -500.000000
v 499.340759 199.905243 -500.000000
v 499.339783 199.892883 -500.000000
v 499.336914 199.880966 -500.000000
v 499.332336 199.869644 -500.000000
v 499.326172 199.858994 -500.000000
v 499.318512 199.849182 -500.000000
v 499.309540 199.840286 -500.000000
v 499.299347 199.832428 -500.000000
v 499.288086 199.825745 -500.000000
v 499.275879 199.820343 -500.000000
v 499.262878 199.816345 -500.000000
v 499.249207 199.813858 -500.000000
v 499.234985 199.813004 -500.000000
v 499.225616 199.813263 -500.000000
v 499.216248 199.814056 -500.000000
v 499.206879 199.815384 -500.000000
v 499.197540 199.817215 -500.000000
v 499.188171 199.819580 -500.000000
v 499.178833 199.822464 -500.000000
v 499.169525 199.825867 -500.000000
v 499.160217 199.829773 -500.000000
v 499.150940 199.834198 -500.000000
v 499.141693 199.839127 -500.000000
v 499.132446 199.844559 -500.000000
v 499.123260 199.850494 -500.000000
v 499.123260 199.774750 -500.000000
v 499.134125 199.769409 -500.000000
v 499.144714 199.764603 -500.000000
v 499.155029 199.760330 -500.000000
v 499.165161 199.756577 -500.000000
v 499.175171 199.753326 -500.000000
v 499.185120 199.750565 -500.000000
v 499.195068 199.748260 -500.000000
v 499.205078 199.746414 -500.000000
v 499.215210 199.745010 -500.000000
v 499.225555 199.744019 -500.000000
v 499.236115 199.743439 -500.000000
v 499.247009 199.743256 -500.000000
v 499.270630 199.744659 -500.000000
v 499.292969 199.748795 -500.000000
v 499.313934 199.755508 -500.000000
v 499.333374 199.764633 -500.000000
v 499.351074 199.776047 -500.000000
v 499.366913 199.789566 -500.000000
v 499.380737 199.805054 -500.000000
v 499.392395 199.822357 -500.000000
v 499.401733 199.841339 -500.000000
v 499.408569 199.861832 -500.000000
v 499.412811 199.883682 -500.000000
v 499.414246 199.906754 -500.000000
v 499.412811 199.929886 -500.000000
v 499.408508 199.951920 -500.000000
v 499.401428 199.972641 -500.000000
v 499.391693 199.991867 -500.000000
v 499.379364 200.009369 -500.000000
v 499.364563 200.024963 -500.000000
v 499.347351 200.038452 -500.000000
v 499.327820 200.049637 -500.000000
v 499.306030 200.058304 -500.000000
v 499.282135 200.064270 -500.000000
v 499.256165 200.067322 -500.000000
v 499.228241 200.067245 -500.000000
v 499.228241 200.195496 -500.000000
v 499.388763 200.195496 -500.000000
v 498.881012 199.743256 -500.000000
v 498.933502 199.743256 -500.000000
v 499.080505 200.268250 -500.000000
v 499.028015 200.268250 -500.000000
v 498.803009 200.261505 -500.000000
v 498.575745 200.261505 -500.000000
v 498.575745 199.995255 -500.000000
v 498.602905 200.000397 -500.000000
v 498.628082 200.002487 -500.000000
v 498.651215 200.001755 -500.000000
v 498.672211 199.998413 -500.000000
v 498.691040 199.992706 -500.000000
v 498.707550 199.984848 -500.000000
v 498.721741 199.975067 -500.000000
v 498.733521 199.963577 -500.000000
v 498.742798 199.950638 -500.000000
v 498.749542 199.936447 -500.000000
v 498.753632 199.921249 -500.000000
v 498.755005 199.905243 -500.000000
v 498.754028 199.892883 -500.000000
v 498.751190 199.880966 -500.000000
v 498.746613 199.869644 -500.000000
v 498.740417 199.858994 -500.000000
v 498.732758 199.849182 -500.000000
v 498.723785 199.840286 -500.000000
v 498.713593 199.832428 -500.000000
v 498.702332 199.825745 -500.000000
v 498.690125 199.820343 -500.000000
v 498.677124 199.816345 -500.000000
v 498.663452 199.813858 -500.000000
v 498.649261 199.813004 -500.000000
v 498.639862 199.813263 -500.000000
v 498.630493 199.814056 -500.000000
v 498.621124 199.815384 -500.000000
v 498.611786 199.817215 -500.000000
v 498.602417 199.819580 -500.000000
v 498.593079 199.822464 -500.000000
v 498.583771 199.825867 -500.000000
v 498.574463 199.829773 -500.000000
v 498.565186 199.834198 -500.000000
v 498.555939 199.839127 -500.000000
v 498.546692 199.844559 -500.000000
v 498.537506 199.850494 -500.000000
v 498.537506 199.774750 -500.000000
v 498.548370 199.769409 -500.000000
v 498.558960 199.764603 -500.000000
v 498.569275 199.760330 -500.000000
v 498.579407 199.756577 -500.000000
v 498.589417 199.753326 -500.000000
v 498.599365 199.750565 -500.000000
v 498.609314 199.748260 -500.000000
v 498.619324 199.746414 -500.000000
v 498.629456 199.745010 -500.000000
v 498.639801 199.744019 -500.000000
v 498.650360 199.743439 -500.000000
v 498.661255 199.743256 -500.000000
v 498.684875 199.744659 -500.000000
v 498.707245 199.748795 -500.000000
v 498.728210 199.755508 -500.000000
v 498.747620 199.764633 -500.000000
v 498.765320 199.776047 -500.000000
v 498.781158 199.789566 -500.000000
v 498.794983 199.805054 -500.000000
v 498.806641 199.822357 -500.000000
v 498.815979 199.841339 -500.000000
v 498.822815 199.861832 -500.000000
v 498.827057 199.883682 -500.000000
v 498.828491 199.906754 -500.000000
v 498.827057 199.929886 -500.000000
v 498.822754 199.951920 -500.000000
v 498.815674 199.972641 -500.000000
v 498.805939 199.991867 -500.000000
v 498.793640 200.009369 -500.000000
v 498.778809 200.024963 -500.000000
v 498.761597 200.038452 -500.000000
v 498.742065 200.049637 -500.000000
v 498.720276 200.058304 -500.000000
v 498.696381 200.064270 -500.000000
v 498.670410 200.067322 -500.000000
v 498.642487 200.067245 -500.000000
v 498.642487 200.195496 -500.000000
v 498.803009 200.195496 -500.000000
vt 0.025974 0.000000
vt 0.987013 0.000000
vt 0.012987 0.000000
vt 0.000000 0.000000
vt 1.000000 0.000000
vt 0.974026 0.000000
vt 0.948052 0.000000
vt 0.961039 0.000000
vt 0.935065 0.000000
vt 0.922078 0.000000
vt 0.909091 0.000000
vt 0.038961 0.000000
vt 0.896104 0.000000
vt 0.051948 0.000000
vt 0.883117 0.000000
vt 0.064935 0.000000
vt 0.870130 0.000000
vt 0.077922 0.000000
vt 0.090909 0.000000
vt 0.103896 0.000000
vt 0.857143 0.000000
vt 0.116883 0.000000
vt 0.129870 0.000000
vt 0.844156 0.000000
vt 0.142857 0.000000
vt 0.831169 0.000000
vt 0.155844 0.000000
vt 0.168831 0.000000
vt 0.818182 0.000000
vt 0.181818 0.000000
vt 0.805195 0.000000
vt 0.194805 0.000000
vt 0.207792 0.000000
vt 0.792208 0.000000
vt 0.220779 0.000000
vt 0.233766 0.000000
vt 0.779221 0.000000
vt 0.246753 0.000000
vt 0.506494 0.000000
vt 0.480519 0.000000
vt 0.493506 0.000000
vt 0.259740 0.000000
vt 0.467532 0.000000
vt 0.766234 0.000000
vt 0.272727 0.000000
vt 0.454545 0.000000
vt 0.441558 0.000000
vt 0.285714 0.000000
vt 0.428571 0.000000
vt 0.415584 0.000000
vt 0.298701 0.000000
vt 0.402597 0.000000
vt 0.753247 0.000000
vt 0.311688 0.000000
vt 0.389610 0.000000
vt 0.376623 0.000000
vt 0.324675 0.000000
vt 0.363636 0.000000
vt 0.350649 0.000000
vt 0.337662 0.000000
vt 0.740260 0.000000
vt 0.727273 0.000000
vt 0.714286 0.000000
vt 0.519481 0.000000
vt 0.532468 0.000000
vt 0.701299 0.000000
vt 0.545455 0.000000
vt 0.558442 0.000000
vt 0.571429 0.000000
vt 0.688312 0.000000
vt 0.584416 0.000000
vt 0.597403 0.000000
vt 0.675325 0.000000
vt 0.610390 0.000000
vt 0.623377 0.000000
vt 0.636364 0.000000
vt 0.662338 0.000000
vt 0.649351 0.000000
vt 0.000000 0.000000
vt 0.666667 0.000000
vt 1.000000 0.000000
vt 0.333333 0.000000
vt 0.025974 0.000000
vt 0.987013 0.000000
vt 0.012987 0.000000
vt 0.000000 0.000000
vt 1.000000 0.000000
vt 0.974026 0.000000
vt 0.948052 0.000000
vt 0.961039 0.000000
vt 0.935065 0.000000
vt 0.922078 0.000000
vt 0.909091 0.000000
vt 0.038961 0.000000
vt 0.896104 0.000000
vt 0.051948 0.000000
vt 0.883117 0.000000
vt 0.064935 0.000000
vt 0.870130 0.000000
vt 0.077922 0.000000
vt 0.090909 0.000000
vt 0.103896 0.000000
vt 0.857143 0.000000
vt 0.116883 0.000000
vt 0.129870 0.000000
vt 0.844156 0.000000
vt 0.142857 0.000000
vt 0.831169 0.000000
vt 0.155844 0.000000
vt 0.168831 0.000000
vt 0.818182 0.000000
vt 0.181818 0.000000
vt 0.805195 0.000000
vt 0.194805 0.000000
vt 0.207792 0.000000
vt 0.792208 0.000000
vt 0.220779 0.000000
vt 0.233766 0.000000
vt 0.779221 0.000000
vt 0.246753 0.000000
vt 0.506494 0.000000
vt 0.480519 0.000000
vt 0.493506 0.000000
vt 0.259740 0.000000
vt 0.467532 0.000000
vt 0.766234 0.000000
vt 0.272727 0.000000
vt 0.454545 0.000000
vt 0.441558 0.000000
vt 0.285714 0.000000
vt 0.428571 0.000000
vt 0.415584 0.000000
vt 0.298701 0.000000
vt 0.402597 0.000000
vt 0.753247 0.000000
vt 0.311688 0.000000
vt 0.389610 0.000000
vt 0.376623 0.000000
vt 0.324675 0.000000
vt 0.363636 0.000000
vt 0.350649 0.000000
vt 0.337662 0.000000
vt 0.740260 0.000000
vt 0.727273 0.000000
vt 0.714286 0.000000
vt 0.519481 0.000000
vt 0.532468 0.000000
vt 0.701299 0.000000
vt 0.545455 0.000000
vt 0.558442 0.000000
vt 0.571429 0.000000
vt 0.688312 0.000000
vt 0.584416 0.000000
vt 0.597403 0.000000
vt 0.675325 0.000000
vt 0.610390 0.000000
vt 0.623377 0.000000
vt 0.636364 0.000000
vt 0.662338 0.000000
vt 0.649351 0.000000
vn 0.0000 0.0000 1.0000
usemtl None
s off
f 3/1/1 77/2/1 2/3/1
f 77/2/1 1/4/1 2/3/1
f 77/2/1 78/5/1 1/4/1
f 3/1/1 76/6/1 77/2/1
f 76/6/1 74/7/1 75/8/1
f 3/1/1 74/7/1 76/6/1
f 3/1/1 73/9/1 74/7/1
f 3/1/1 72/10/1 73/9/1
f 3/1/1 71/11/1 72/10/1
f 3/1/1 4/12/1 71/11/1
f 4/12/1 70/13/1 71/11/1
f 4/12/1 5/14/1 70/13/1
f 5/14/1 69/15/1 70/13/1
f 5/14/1 6/16/1 69/15/1
f 6/16/1 68/17/1 69/15/1
f 7/18/1 68/17/1 6/16/1
f 8/19/1 68/17/1 7/18/1
f 9/20/1 68/17/1 8/19/1
f 9/20/1 67/21/1 68/17/1
f 10/22/1 67/21/1 9/20/1
f 11/23/1 67/21/1 10/22/1
f 11/23/1 66/24/1 67/21/1
f 12/25/1 66/24/1 11/23/1
f 12/25/1 65/26/1 66/24/1
f 13/27/1 65/26/1 12/25/1
f 14/28/1 65/26/1 13/27/1
f 14/28/1 64/29/1 65/26/1
f 15/30/1 64/29/1 14/28/1
f 15/30/1 63/31/1 64/29/1
f 16/32/1 63/31/1 15/30/1
f 17/33/1 63/31/1 16/32/1
f 17/33/1 62/34/1 63/31/1
f 18/35/1 62/34/1 17/33/1
f 19/36/1 62/34/1 18/35/1
f 19/36/1 61/37/1 62/34/1
f 20/38/1 61/37/1 19/36/1
f 40/39/1 38/40/1 39/41/1
f 21/42/1 61/37/1 20/38/1
f 40/39/1 37/43/1 38/40/1
f 21/42/1 60/44/1 61/37/1
f 22/45/1 60/44/1 21/42/1
f 40/39/1 36/46/1 37/43/1
f 40/39/1 35/47/1 36/46/1
f 23/48/1 60/44/1 22/45/1
f 40/39/1 34/49/1 35/47/1
f 40/39/1 33/50/1 34/49/1
f 24/51/1 60/44/1 23/48/1
f 40/39/1 32/52/1 33/50/1
f 24/51/1 59/53/1 60/44/1
f 25/54/1 59/53/1 24/51/1
f 40/39/1 31/55/1 32/52/1
f 40/39/1 30/56/1 31/55/1
f 26/57/1 59/53/1 25/54/1
f 40/39/1 29/58/1 30/56/1
f 40/39/1 28/59/1 29/58/1
f 27/60/1 59/53/1 26/57/1
f 40/39/1 27/60/1 28/59/1
f 40/39/1 59/53/1 27/60/1
f 40/39/1 58/61/1 59/53/1
f 40/39/1 57/62/1 58/61/1
f 40/39/1 56/63/1 57/62/1
f 41/64/1 56/63/1 40/39/1
f 42/65/1 56/63/1 41/64/1
f 42/65/1 55/66/1 56/63/1
f 43/67/1 55/66/1 42/65/1
f 44/68/1 55/66/1 43/67/1
f 45/69/1 55/66/1 44/68/1
f 45/69/1 54/70/1 55/66/1
f 46/71/1 54/70/1 45/69/1
f 47/72/1 54/70/1 46/71/1
f 47/72/1 53/73/1 54/70/1
f 48/74/1 53/73/1 47/72/1
f 49/75/1 53/73/1 48/74/1
f 50/76/1 53/73/1 49/75/1
f 50/76/1 52/77/1 53/73/1
f 51/78/1 52/77/1 50/76/1
f 79/79/1 81/80/1 82/81/1
f 79/79/1 80/82/1 81/80/1
f 85/83/1 159/84/1 84/85/1
f 159/84/1 83/86/1 84/85/1
f 159/84/1 160/87/1 83/86/1
f 85/83/1 158/88/1 159/84/1
f 158/88/1 156/89/1 157/90/1
f 85/83/1 156/89/1 158/88/1
f 85/83/1 155/91/1 156/89/1
f 85/83/1 154/92/1 155/91/1
f 85/83/1 153/93/1 154/92/1
f 85/83/1 86/94/1 153/93/1
f 86/94/1 152/95/1 153/93/1
f 86/94/1 87/96/1 152/95/1
f 87/96/1 151/97/1 152/95/1
f 87/96/1 88/98/1 151/97/1
f 88/98/1 150/99/1 151/97/1
f 89/100/1 150/99/1 88/98/1
f 90/101/1 150/99/1 89/100/1
f 91/102/1 150/99/1 90/101/1
f 91/102/1 149/103/1 150/99/1
f 92/104/1 149/103/1 91/102/1
f 93/105/1 149/103/1 92/104/1
f 93/105/1 148/106/1 149/103/1
f 94/107/1 148/106/1 93/105/1
f 94/107/1 147/108/1 148/106/1
f 95/109/1 147/108/1 94/107/1
f 96/110/1 147/108/1 95/109/1
f 96/110/1 146/111/1 147/108/1
f 97/112/1 146/111/1 96/110/1
f 97/112/1 145/113/1 146/111/1
f 98/114/1 145/113/1 97/112/1
f 99/115/1 145/113/1 98/114/1
f 99/115/1 144/116/1 145/113/1
f 100/117/1 144/116/1 99/115/1
f 101/118/1 144/116/1 100/117/1
f 101/118/1 143/119/1 144/116/1
f 102/120/1 143/119/1 101/118/1
f 122/121/1 120/122/1 121/123/1
f 103/124/1 143/119/1 102/120/1
f 122/121/1 119/125/1 120/122/1
f 103/124/1 142/126/1 143/119/1
f 104/127/1 142/126/1 103/124/1
f 122/121/1 118/128/1 119/125/1
f 122/121/1 117/129/1 118/128/1
f 105/130/1 142/126/1 104/127/1
f 122/121/1 116/131/1 117/129/1
f 122/121/1 115/132/1 116/131/1
f 106/133/1 142/126/1 105/130/1
f 122/121/1 114/134/1 115/132/1
f 106/133/1 141/135/1 142/126/1
f 107/136/1 141/135/1 106/133/1
f 122/121/1 113/137/1 114/134/1
f 122/121/1 112/138/1 113/137/1
f 108/139/1 141/135/1 107/136/1
f 122/121/1 111/140/1 112/138/1
f 122/121/1 110/141/1 111/140/1
f 109/142/1 141/135/1 108/139/1
f 122/121/1 109/142/1 110/141/1
f 122/121/1 141/135/1 109/142/1
f 122/121/1 140/143/1 141/135/1
f 122/121/1 139/144/1 140/143/1
f 122/121/1 138/145/1 139/144/1
f 123/146/1 138/145/1 122/121/1
f 124/147/1 138/145/1 123/146/1
f 124/147/1 137/148/1 138/145/1
f 125/149/1 137/148/1 124/147/1
f 126/150/1 137/148/1 125/149/1
f 127/151/1 137/148/1 126/150/1
f 127/151/1 136/152/1 137/148/1
f 128/153/1 136/152/1 127/151/1
f 129/154/1 136/152/1 128/153/1
f 129/154/1 135/155/1 136/152/1
f 130/156/1 135/155/1 129/154/1
f 131/157/1 135/155/1 130/156/1
f 132/158/1 135/155/1 131/157/1
f 132/158/1 134/159/1 135/155/1
f 133/160/1 134/159/1 132/158/1
