# Blender v3.2.2 OBJ File: 'tutorial.blend'
# www.blender.org
mtllib StatsValueLevers1.mtl
o StatsValueLevers1_Text.040
v 499.146515 199.426743 -500.000000
v 499.155090 199.430481 -500.000000
v 499.163269 199.433823 -500.000000
v 499.171051 199.436798 -500.000000
v 499.178558 199.439392 -500.000000
v 499.185791 199.441635 -500.000000
v 499.192810 199.443527 -500.000000
v 499.199677 199.445099 -500.000000
v 499.206451 199.446365 -500.000000
v 499.213165 199.447311 -500.000000
v 499.219879 199.447983 -500.000000
v 499.226624 199.448380 -500.000000
v 499.233490 199.448502 -500.000000
v 499.246582 199.447891 -500.000000
v 499.258820 199.446121 -500.000000
v 499.270111 199.443192 -500.000000
v 499.280457 199.439163 -500.000000
v 499.289764 199.434082 -500.000000
v 499.298004 199.427963 -500.000000
v 499.305115 199.420868 -500.000000
v 499.311066 199.412827 -500.000000
v 499.315765 199.403885 -500.000000
v 499.319183 199.394073 -500.000000
v 499.321289 199.383438 -500.000000
v 499.321991 199.371994 -500.000000
v 499.321289 199.360764 -500.000000
v 499.319183 199.350357 -500.000000
v 499.315674 199.340775 -500.000000
v 499.310760 199.332077 -500.000000
v 499.304413 199.324295 -500.000000
v 499.296692 199.317444 -500.000000
v 499.287537 199.311554 -500.000000
v 499.277008 199.306671 -500.000000
v 499.265045 199.302811 -500.000000
v 499.251678 199.300018 -500.000000
v 499.236908 199.298325 -500.000000
v 499.220764 199.297745 -500.000000
v 499.220764 199.230255 -500.000000
v 499.238190 199.230316 -500.000000
v 499.254120 199.228714 -500.000000
v 499.268555 199.225540 -500.000000
v 499.281464 199.220917 -500.000000
v 499.292877 199.214951 -500.000000
v 499.302795 199.207748 -500.000000
v 499.311157 199.199417 -500.000000
v 499.318024 199.190079 -500.000000
v 499.323364 199.179840 -500.000000
v 499.327179 199.168793 -500.000000
v 499.329498 199.157059 -500.000000
v 499.330261 199.144745 -500.000000
v 499.329590 199.132736 -500.000000
v 499.327637 199.121506 -500.000000
v 499.324432 199.111099 -500.000000
v 499.320038 199.101562 -500.000000
v 499.314484 199.092941 -500.000000
v 499.307831 199.085312 -500.000000
v 499.300171 199.078705 -500.000000
v 499.291473 199.073196 -500.000000
v 499.281830 199.068817 -500.000000
v 499.271301 199.065613 -500.000000
v 499.259918 199.063660 -500.000000
v 499.247742 199.063004 -500.000000
v 499.238373 199.063263 -500.000000
v 499.229004 199.064072 -500.000000
v 499.219604 199.065399 -500.000000
v 499.210205 199.067276 -500.000000
v 499.200775 199.069702 -500.000000
v 499.191315 199.072662 -500.000000
v 499.181824 199.076172 -500.000000
v 499.172302 199.080215 -500.000000
v 499.162750 199.084839 -500.000000
v 499.153137 199.089996 -500.000000
v 499.143463 199.095718 -500.000000
v 499.133759 199.102005 -500.000000
v 499.133759 199.022507 -500.000000
v 499.142944 199.017990 -500.000000
v 499.152130 199.013824 -500.000000
v 499.161285 199.010025 -500.000000
v 499.170441 199.006577 -500.000000
v 499.179565 199.003525 -500.000000
v 499.188690 199.000839 -500.000000
v 499.197754 198.998550 -500.000000
v 499.206818 198.996674 -500.000000
v 499.215790 198.995178 -500.000000
v 499.224762 198.994110 -500.000000
v 499.233643 198.993469 -500.000000
v 499.242493 198.993256 -500.000000
v 499.265533 198.994553 -500.000000
v 499.287262 198.998398 -500.000000
v 499.307556 199.004639 -500.000000
v 499.326294 199.013168 -500.000000
v 499.343353 199.023849 -500.000000
v 499.358551 199.036560 -500.000000
v 499.371796 199.051178 -500.000000
v 499.382935 199.067581 -500.000000
v 499.391846 199.085648 -500.000000
v 499.398376 199.105225 -500.000000
v 499.402374 199.126221 -500.000000
v 499.403748 199.148499 -500.000000
v 499.403290 199.161621 -500.000000
v 499.401855 199.174637 -500.000000
v 499.399445 199.187424 -500.000000
v 499.396027 199.199829 -500.000000
v 499.391602 199.211746 -500.000000
v 499.386139 199.223038 -500.000000
v 499.379578 199.233551 -500.000000
v 499.371979 199.243164 -500.000000
v 499.363251 199.251755 -500.000000
v 499.353394 199.259171 -500.000000
v 499.342407 199.265305 -500.000000
v 499.330261 199.270004 -500.000000
v 499.341309 199.276520 -500.000000
v 499.351227 199.283401 -500.000000
v 499.360077 199.290665 -500.000000
v 499.367828 199.298416 -500.000000
v 499.374573 199.306686 -500.000000
v 499.380310 199.315567 -500.000000
v 499.385071 199.325089 -500.000000
v 499.388916 199.335327 -500.000000
v 499.391846 199.346359 -500.000000
v 499.393890 199.358231 -500.000000
v 499.395111 199.371002 -500.000000
v 499.395508 199.384750 -500.000000
v 499.394287 199.404388 -500.000000
v 499.390686 199.422760 -500.000000
v 499.384827 199.439789 -500.000000
v 499.376740 199.455368 -500.000000
v 499.366608 199.469421 -500.000000
v 499.354431 199.481873 -500.000000
v 499.340363 199.492645 -500.000000
v 499.324493 199.501633 -500.000000
v 499.306915 199.508774 -500.000000
v 499.287689 199.513992 -500.000000
v 499.266937 199.517166 -500.000000
v 499.244751 199.518250 -500.000000
v 499.235382 199.518112 -500.000000
v 499.226318 199.517685 -500.000000
v 499.217590 199.516968 -500.000000
v 499.209106 199.515945 -500.000000
v 499.200867 199.514633 -500.000000
v 499.192810 199.513000 -500.000000
v 499.184906 199.511063 -500.000000
v 499.177124 199.508804 -500.000000
v 499.169434 199.506226 -500.000000
v 499.161804 199.503326 -500.000000
v 499.154175 199.500076 -500.000000
v 499.146515 199.496506 -500.000000
v 498.881012 198.993256 -500.000000
v 498.933502 198.993256 -500.000000
v 499.080505 199.518250 -500.000000
v 499.028015 199.518250 -500.000000
v 498.725006 199.511505 -500.000000
v 498.651489 199.511505 -500.000000
v 498.651489 199.000000 -500.000000
v 498.725006 199.000000 -500.000000
vt 0.924658 0.000000
vt 0.910959 0.000000
vt 0.917808 0.000000
vt 0.931507 0.000000
vt 0.938356 0.000000
vt 0.904110 0.000000
vt 0.945205 0.000000
vt 0.952055 0.000000
vt 0.958904 0.000000
vt 0.897260 0.000000
vt 0.965753 0.000000
vt 0.972603 0.000000
vt 0.979452 0.000000
vt 0.890411 0.000000
vt 0.986301 0.000000
vt 0.993151 0.000000
vt 0.883562 0.000000
vt 1.000000 0.000000
vt 0.000000 0.000000
vt 0.006849 0.000000
vt 0.013699 0.000000
vt 0.020548 0.000000
vt 0.027397 0.000000
vt 0.034247 0.000000
vt 0.041096 0.000000
vt 0.876712 0.000000
vt 0.047945 0.000000
vt 0.054795 0.000000
vt 0.869863 0.000000
vt 0.061644 0.000000
vt 0.068493 0.000000
vt 0.075342 0.000000
vt 0.863014 0.000000
vt 0.082192 0.000000
vt 0.089041 0.000000
vt 0.856164 0.000000
vt 0.095890 0.000000
vt 0.102740 0.000000
vt 0.109589 0.000000
vt 0.849315 0.000000
vt 0.116438 0.000000
vt 0.123288 0.000000
vt 0.130137 0.000000
vt 0.842466 0.000000
vt 0.136986 0.000000
vt 0.143836 0.000000
vt 0.835616 0.000000
vt 0.150685 0.000000
vt 0.157534 0.000000
vt 0.828767 0.000000
vt 0.164384 0.000000
vt 0.171233 0.000000
vt 0.821918 0.000000
vt 0.178082 0.000000
vt 0.815068 0.000000
vt 0.184932 0.000000
vt 0.808219 0.000000
vt 0.191781 0.000000
vt 0.801370 0.000000
vt 0.198630 0.000000
vt 0.794521 0.000000
vt 0.205479 0.000000
vt 0.212329 0.000000
vt 0.787671 0.000000
vt 0.219178 0.000000
vt 0.780822 0.000000
vt 0.226027 0.000000
vt 0.232877 0.000000
vt 0.239726 0.000000
vt 0.773973 0.000000
vt 0.246575 0.000000
vt 0.253425 0.000000
vt 0.767123 0.000000
vt 0.760274 0.000000
vt 0.753425 0.000000
vt 0.746575 0.000000
vt 0.739726 0.000000
vt 0.732877 0.000000
vt 0.726027 0.000000
vt 0.719178 0.000000
vt 0.260274 0.000000
vt 0.712329 0.000000
vt 0.267123 0.000000
vt 0.273973 0.000000
vt 0.280822 0.000000
vt 0.705479 0.000000
vt 0.287671 0.000000
vt 0.294521 0.000000
vt 0.698630 0.000000
vt 0.301370 0.000000
vt 0.691781 0.000000
vt 0.308219 0.000000
vt 0.315068 0.000000
vt 0.684932 0.000000
vt 0.321918 0.000000
vt 0.678082 0.000000
vt 0.328767 0.000000
vt 0.671233 0.000000
vt 0.335616 0.000000
vt 0.664384 0.000000
vt 0.342466 0.000000
vt 0.349315 0.000000
vt 0.657534 0.000000
vt 0.356164 0.000000
vt 0.363014 0.000000
vt 0.650685 0.000000
vt 0.506849 0.000000
vt 0.493151 0.000000
vt 0.500000 0.000000
vt 0.369863 0.000000
vt 0.486301 0.000000
vt 0.376712 0.000000
vt 0.479452 0.000000
vt 0.643836 0.000000
vt 0.383562 0.000000
vt 0.472603 0.000000
vt 0.465753 0.000000
vt 0.390411 0.000000
vt 0.458904 0.000000
vt 0.397260 0.000000
vt 0.452055 0.000000
vt 0.445205 0.000000
vt 0.404110 0.000000
vt 0.636986 0.000000
vt 0.438356 0.000000
vt 0.410959 0.000000
vt 0.431507 0.000000
vt 0.424658 0.000000
vt 0.417808 0.000000
vt 0.630137 0.000000
vt 0.623288 0.000000
vt 0.616438 0.000000
vt 0.513699 0.000000
vt 0.520548 0.000000
vt 0.527397 0.000000
vt 0.609589 0.000000
vt 0.534247 0.000000
vt 0.541096 0.000000
vt 0.602740 0.000000
vt 0.547945 0.000000
vt 0.554795 0.000000
vt 0.561644 0.000000
vt 0.595890 0.000000
vt 0.568493 0.000000
vt 0.575342 0.000000
vt 0.589041 0.000000
vt 0.582192 0.000000
vt 0.000000 0.000000
vt 0.666667 0.000000
vt 1.000000 0.000000
vt 0.333333 0.000000
vt 0.666667 0.000000
vt 0.000000 0.000000
vt 0.333333 0.000000
vt 1.000000 0.000000
vn 0.0000 0.0000 1.0000
usemtl None
s off
f 136/1/1 134/2/1 135/3/1
f 137/4/1 134/2/1 136/1/1
f 138/5/1 134/2/1 137/4/1
f 138/5/1 133/6/1 134/2/1
f 139/7/1 133/6/1 138/5/1
f 140/8/1 133/6/1 139/7/1
f 141/9/1 133/6/1 140/8/1
f 141/9/1 132/10/1 133/6/1
f 142/11/1 132/10/1 141/9/1
f 143/12/1 132/10/1 142/11/1
f 144/13/1 132/10/1 143/12/1
f 144/13/1 131/14/1 132/10/1
f 145/15/1 131/14/1 144/13/1
f 146/16/1 131/14/1 145/15/1
f 146/16/1 130/17/1 131/14/1
f 147/18/1 130/17/1 146/16/1
f 1/19/1 2/20/1 147/18/1
f 2/20/1 3/21/1 147/18/1
f 3/21/1 4/22/1 147/18/1
f 4/22/1 5/23/1 147/18/1
f 5/23/1 130/17/1 147/18/1
f 5/23/1 6/24/1 130/17/1
f 6/24/1 7/25/1 130/17/1
f 7/25/1 129/26/1 130/17/1
f 7/25/1 8/27/1 129/26/1
f 8/27/1 9/28/1 129/26/1
f 9/28/1 128/29/1 129/26/1
f 9/28/1 10/30/1 128/29/1
f 10/30/1 11/31/1 128/29/1
f 11/31/1 12/32/1 128/29/1
f 12/32/1 127/33/1 128/29/1
f 12/32/1 13/34/1 127/33/1
f 13/34/1 14/35/1 127/33/1
f 14/35/1 126/36/1 127/33/1
f 15/37/1 126/36/1 14/35/1
f 16/38/1 126/36/1 15/37/1
f 17/39/1 126/36/1 16/38/1
f 17/39/1 125/40/1 126/36/1
f 18/41/1 125/40/1 17/39/1
f 19/42/1 125/40/1 18/41/1
f 20/43/1 125/40/1 19/42/1
f 20/43/1 124/44/1 125/40/1
f 21/45/1 124/44/1 20/43/1
f 22/46/1 124/44/1 21/45/1
f 22/46/1 123/47/1 124/44/1
f 23/48/1 123/47/1 22/46/1
f 24/49/1 123/47/1 23/48/1
f 24/49/1 122/50/1 123/47/1
f 25/51/1 122/50/1 24/49/1
f 26/52/1 122/50/1 25/51/1
f 26/52/1 121/53/1 122/50/1
f 27/54/1 121/53/1 26/52/1
f 27/54/1 120/55/1 121/53/1
f 28/56/1 120/55/1 27/54/1
f 28/56/1 119/57/1 120/55/1
f 29/58/1 119/57/1 28/56/1
f 29/58/1 118/59/1 119/57/1
f 30/60/1 118/59/1 29/58/1
f 30/60/1 117/61/1 118/59/1
f 31/62/1 117/61/1 30/60/1
f 32/63/1 117/61/1 31/62/1
f 32/63/1 116/64/1 117/61/1
f 33/65/1 116/64/1 32/63/1
f 33/65/1 115/66/1 116/64/1
f 34/67/1 115/66/1 33/65/1
f 35/68/1 115/66/1 34/67/1
f 36/69/1 115/66/1 35/68/1
f 36/69/1 114/70/1 115/66/1
f 37/71/1 114/70/1 36/69/1
f 38/72/1 114/70/1 37/71/1
f 38/72/1 113/73/1 114/70/1
f 38/72/1 112/74/1 113/73/1
f 38/72/1 111/75/1 112/74/1
f 38/72/1 110/76/1 111/75/1
f 38/72/1 109/77/1 110/76/1
f 38/72/1 108/78/1 109/77/1
f 38/72/1 107/79/1 108/78/1
f 38/72/1 106/80/1 107/79/1
f 38/72/1 39/81/1 106/80/1
f 39/81/1 105/82/1 106/80/1
f 40/83/1 105/82/1 39/81/1
f 41/84/1 105/82/1 40/83/1
f 42/85/1 105/82/1 41/84/1
f 42/85/1 104/86/1 105/82/1
f 43/87/1 104/86/1 42/85/1
f 44/88/1 104/86/1 43/87/1
f 44/88/1 103/89/1 104/86/1
f 45/90/1 103/89/1 44/88/1
f 45/90/1 102/91/1 103/89/1
f 46/92/1 102/91/1 45/90/1
f 47/93/1 102/91/1 46/92/1
f 47/93/1 101/94/1 102/91/1
f 48/95/1 101/94/1 47/93/1
f 48/95/1 100/96/1 101/94/1
f 49/97/1 100/96/1 48/95/1
f 49/97/1 99/98/1 100/96/1
f 50/99/1 99/98/1 49/97/1
f 50/99/1 98/100/1 99/98/1
f 51/101/1 98/100/1 50/99/1
f 52/102/1 98/100/1 51/101/1
f 52/102/1 97/103/1 98/100/1
f 53/104/1 97/103/1 52/102/1
f 54/105/1 97/103/1 53/104/1
f 54/105/1 96/106/1 97/103/1
f 75/107/1 73/108/1 74/109/1
f 55/110/1 96/106/1 54/105/1
f 75/107/1 72/111/1 73/108/1
f 56/112/1 96/106/1 55/110/1
f 75/107/1 71/113/1 72/111/1
f 56/112/1 95/114/1 96/106/1
f 57/115/1 95/114/1 56/112/1
f 75/107/1 70/116/1 71/113/1
f 75/107/1 69/117/1 70/116/1
f 58/118/1 95/114/1 57/115/1
f 75/107/1 68/119/1 69/117/1
f 59/120/1 95/114/1 58/118/1
f 75/107/1 67/121/1 68/119/1
f 75/107/1 66/122/1 67/121/1
f 60/123/1 95/114/1 59/120/1
f 60/123/1 94/124/1 95/114/1
f 75/107/1 65/125/1 66/122/1
f 61/126/1 94/124/1 60/123/1
f 75/107/1 64/127/1 65/125/1
f 75/107/1 63/128/1 64/127/1
f 62/129/1 94/124/1 61/126/1
f 75/107/1 62/129/1 63/128/1
f 75/107/1 94/124/1 62/129/1
f 75/107/1 93/130/1 94/124/1
f 75/107/1 92/131/1 93/130/1
f 75/107/1 91/132/1 92/131/1
f 76/133/1 91/132/1 75/107/1
f 77/134/1 91/132/1 76/133/1
f 78/135/1 91/132/1 77/134/1
f 78/135/1 90/136/1 91/132/1
f 79/137/1 90/136/1 78/135/1
f 80/138/1 90/136/1 79/137/1
f 80/138/1 89/139/1 90/136/1
f 81/140/1 89/139/1 80/138/1
f 82/141/1 89/139/1 81/140/1
f 83/142/1 89/139/1 82/141/1
f 83/142/1 88/143/1 89/139/1
f 84/144/1 88/143/1 83/142/1
f 85/145/1 88/143/1 84/144/1
f 85/145/1 87/146/1 88/143/1
f 86/147/1 87/146/1 85/145/1
f 148/148/1 150/149/1 151/150/1
f 148/148/1 149/151/1 150/149/1
f 154/152/1 152/153/1 153/154/1
f 154/152/1 155/155/1 152/153/1
