# Blender v3.2.0 OBJ File: ''
# www.blender.org
mtllib WallSouth.mtl
o WallS_Plane.416
v 0.500000 -0.000002 12.500000
v -0.499999 -0.000002 12.500000
v -0.499999 0.999998 12.500000
v 0.500000 0.999998 12.500000
v 12.500000 -0.000002 10.500000
v 11.500000 -0.000002 10.500000
v 11.500000 0.999998 10.500000
v 12.500000 0.999998 10.500000
v 7.500000 -0.000002 11.500000
v 6.500000 -0.000002 11.500000
v 6.500000 0.999998 11.500000
v 7.500000 0.999998 11.500000
v 6.500000 -0.000002 11.500000
v 5.500000 -0.000002 11.500000
v 5.500000 0.999998 11.500000
v 6.500000 0.999998 11.500000
v 7.500000 -0.000001 8.500000
v 6.500000 -0.000001 8.500000
v 6.500000 0.999999 8.500000
v 7.500000 0.999999 8.500000
v 8.500000 -0.000001 8.500000
v 7.500000 -0.000001 8.500000
v 7.500000 0.999999 8.500000
v 8.500000 0.999999 8.500000
v -2.499999 -0.000001 6.500000
v -3.499999 -0.000001 6.500000
v -3.499999 0.999999 6.500000
v -2.499999 0.999999 6.500000
v 11.500000 -0.000002 10.500000
v 10.500000 -0.000002 10.500000
v 10.500000 0.999998 10.500000
v 11.500000 0.999998 10.500000
v 8.500000 -0.000002 10.500000
v 7.500000 -0.000002 10.500000
v 7.500000 0.999998 10.500000
v 8.500000 0.999998 10.500000
v 9.500000 -0.000002 10.500000
v 8.500000 -0.000002 10.500000
v 8.500000 0.999998 10.500000
v 9.500000 0.999998 10.500000
v 10.500000 -0.000002 10.500000
v 9.500000 -0.000002 10.500000
v 9.500000 0.999998 10.500000
v 10.500000 0.999998 10.500000
v 4.500000 -0.000002 11.500000
v 3.500000 -0.000002 11.500000
v 3.500000 0.999998 11.500000
v 4.500000 0.999998 11.500000
v 3.500000 -0.000002 11.500000
v 2.500000 -0.000002 11.500000
v 2.500000 0.999998 11.500000
v 3.500000 0.999998 11.500000
v 2.500000 -0.000002 11.500000
v 1.500000 -0.000002 11.500000
v 1.500000 0.999998 11.500000
v 2.500000 0.999998 11.500000
v 5.500000 -0.000002 11.500000
v 4.500000 -0.000002 11.500000
v 4.500000 0.999998 11.500000
v 5.500000 0.999998 11.500000
v 6.500000 -0.000001 6.500000
v 5.500000 -0.000001 6.500000
v 5.500000 0.999999 6.500000
v 6.500000 0.999999 6.500000
v 3.500000 -0.000001 6.500000
v 2.500000 -0.000001 6.500000
v 2.500000 0.999999 6.500000
v 3.500000 0.999999 6.500000
v 4.500000 -0.000001 6.500000
v 3.500000 -0.000001 6.500000
v 3.500000 0.999999 6.500000
v 4.500000 0.999999 6.500000
v 5.500000 -0.000001 6.500000
v 4.500000 -0.000001 6.500000
v 4.500000 0.999999 6.500000
v 5.500000 0.999999 6.500000
v 1.500000 -0.000001 6.500000
v 0.500000 -0.000001 6.500000
v 0.500001 0.999999 6.500000
v 1.500000 0.999999 6.500000
v 0.500000 -0.000001 6.500000
v -0.499999 -0.000001 6.500000
v -0.499999 0.999999 6.500000
v 0.500000 0.999999 6.500000
v -0.500000 -0.000001 6.500000
v -1.499999 -0.000001 6.500000
v -1.499999 0.999999 6.500000
v -0.499999 0.999999 6.500000
v 2.500000 -0.000001 6.500000
v 1.500000 -0.000001 6.500000
v 1.500000 0.999999 6.500000
v 2.500000 0.999999 6.500000
v 1.500000 -0.000001 8.500000
v 0.500000 -0.000001 8.500000
v 0.500001 0.999999 8.500000
v 1.500000 0.999999 8.500000
v 2.500000 -0.000001 8.500000
v 1.500000 -0.000001 8.500000
v 1.500000 0.999999 8.500000
v 2.500000 0.999999 8.500000
v 3.500000 -0.000001 8.500000
v 2.500000 -0.000001 8.500000
v 2.500000 0.999999 8.500000
v 3.500000 0.999999 8.500000
v 1.500000 -0.000002 12.500000
v 0.500000 -0.000002 12.500000
v 0.500001 0.999998 12.500000
v 1.500000 0.999998 12.500000
v -1.500000 -0.000002 12.500000
v -2.499999 -0.000002 12.500000
v -2.499999 0.999998 12.500000
v -1.499999 0.999998 12.500000
v -0.500000 -0.000002 12.500000
v -1.499999 -0.000002 12.500000
v -1.499999 0.999998 12.500000
v -0.499999 0.999998 12.500000
v 13.500000 -0.000001 8.500000
v 12.500000 -0.000001 8.500000
v 12.500000 0.999999 8.500000
v 13.500000 0.999999 8.500000
v 14.500000 -0.000001 8.500000
v 13.500000 -0.000001 8.500000
v 13.500000 0.999999 8.500000
v 14.500000 0.999999 8.500000
v 11.500000 -0.000001 8.500000
v 10.500000 -0.000001 8.500000
v 10.500000 0.999999 8.500000
v 11.500000 0.999999 8.500000
v 10.500000 -0.000001 8.500000
v 9.500000 -0.000001 8.500000
v 9.500000 0.999999 8.500000
v 10.500000 0.999999 8.500000
v 3.500000 -0.000000 1.500000
v 2.500000 -0.000000 1.500000
v 2.500000 1.000000 1.500000
v 3.500000 1.000000 1.500000
v 4.500000 -0.000000 1.500000
v 3.500000 -0.000000 1.500000
v 3.500000 1.000000 1.500000
v 4.500000 1.000000 1.500000
v 6.500000 0.000000 -0.500000
v 5.500000 0.000000 -0.500000
v 5.500000 1.000000 -0.500000
v 6.500000 1.000000 -0.500000
v 8.500000 -0.000001 5.500000
v 7.500000 -0.000001 5.500000
v 7.500000 0.999999 5.500000
v 8.500000 0.999999 5.500000
v 7.500000 -0.000001 5.500000
v 6.500000 -0.000001 5.500000
v 6.500000 0.999999 5.500000
v 7.500000 0.999999 5.500000
v 7.500000 0.000000 -2.500000
v 6.500000 0.000000 -2.500000
v 6.500000 1.000000 -2.500000
v 7.500000 1.000000 -2.500000
v 6.500000 0.000000 -2.500000
v 5.500000 0.000000 -2.500000
v 5.500000 1.000000 -2.500000
v 6.500000 1.000000 -2.500000
v 5.500000 0.000000 -2.500000
v 4.500000 0.000000 -2.500000
v 4.500000 1.000000 -2.500000
v 5.500000 1.000000 -2.500000
v 6.500000 -0.000001 3.500000
v 5.500000 -0.000001 3.500000
v 5.500000 0.999999 3.500000
v 6.500000 0.999999 3.500000
v 7.500000 -0.000001 3.500000
v 6.500000 -0.000001 3.500000
v 6.500000 0.999999 3.500000
v 7.500000 0.999999 3.500000
v 4.500000 -0.000001 3.500000
v 3.500000 -0.000001 3.500000
v 3.500000 0.999999 3.500000
v 4.500000 0.999999 3.500000
v 3.500000 -0.000001 3.500000
v 2.500000 -0.000001 3.500000
v 2.500000 0.999999 3.500000
v 3.500000 0.999999 3.500000
v 16.499998 -0.000001 4.500000
v 15.500000 -0.000001 4.500000
v 15.500000 0.999999 4.500000
v 16.499998 0.999999 4.500000
v 14.500000 -0.000001 4.500000
v 14.500000 0.999999 4.500000
v 14.500000 -0.000001 4.500000
v 13.500000 -0.000001 4.500000
v 13.500000 0.999999 4.500000
v 14.500000 0.999999 4.500000
v 4.500000 -0.000002 9.500000
v 4.500000 0.999998 9.500000
v 5.500000 -0.000002 9.500000
v 4.500000 -0.000002 9.500000
v 4.500000 0.999998 9.500000
v 5.500000 0.999998 9.500000
v 6.500000 -0.000002 9.500000
v 5.500000 -0.000002 9.500000
v 5.500000 0.999998 9.500000
v 6.500000 0.999998 9.500000
v 0.500000 -0.000002 9.500000
v -0.499999 -0.000002 9.500000
v -0.499999 0.999998 9.500000
v 0.500000 0.999998 9.500000
v -0.500000 -0.000002 9.500000
v -1.499999 -0.000002 9.500000
v -1.499999 0.999998 9.500000
v -0.499999 0.999998 9.500000
v -1.500000 -0.000002 9.500000
v -2.499999 -0.000002 9.500000
v -2.499999 0.999998 9.500000
v -1.499999 0.999998 9.500000
v 7.500000 -0.000000 0.500000
v 7.500000 1.000000 0.500000
v 0.500000 -0.000001 4.500000
v -0.499999 -0.000001 4.500000
v -0.499999 0.999999 4.500000
v 0.500000 0.999999 4.500000
v 1.500000 -0.000001 4.500000
v 0.500000 -0.000001 4.500000
v 0.500001 0.999999 4.500000
v 1.500000 0.999999 4.500000
v 2.500000 -0.000001 4.500000
v 1.500000 -0.000001 4.500000
v 1.500000 0.999999 4.500000
v 2.500000 0.999999 4.500000
v -2.499999 -0.000002 13.500000
v -3.499999 -0.000002 13.500000
v -3.499999 0.999998 13.500000
v -2.499999 0.999998 13.500000
v -3.499999 -0.000002 13.500000
v -4.499999 -0.000002 13.500000
v -4.499999 0.999998 13.500000
v -3.499999 0.999998 13.500000
v -4.499999 -0.000002 13.500000
v -5.499999 -0.000002 13.500000
v -5.499999 0.999998 13.500000
v -4.499999 0.999998 13.500000
v 9.500000 0.000001 -3.500000
v 8.500000 0.000001 -3.500000
v 8.500000 1.000001 -3.500000
v 9.500000 1.000001 -3.500000
v 10.500000 0.000001 -3.500000
v 9.500000 0.000001 -3.500000
v 9.500000 1.000001 -3.500000
v 10.500000 1.000001 -3.500000
v 11.500000 0.000001 -3.500000
v 10.500000 0.000001 -3.500000
v 10.500000 1.000001 -3.500000
v 11.500000 1.000001 -3.500000
v 2.500000 -0.000000 0.500000
v 1.500000 -0.000000 0.500000
v 1.500000 1.000000 0.500000
v 2.500000 1.000000 0.500000
v 1.500000 -0.000000 0.500000
v 0.500000 -0.000000 0.500000
v 0.500001 1.000000 0.500000
v 1.500000 1.000000 0.500000
v 9.500000 -0.000001 7.500000
v 8.500000 -0.000001 7.500000
v 8.500000 0.999999 7.500000
v 9.500000 0.999999 7.500000
v 7.500000 0.000001 -5.500000
v 6.500000 0.000001 -5.500000
v 6.500000 1.000001 -5.500000
v 7.500000 1.000001 -5.500000
v -0.500000 -0.000001 3.500000
v -1.499999 -0.000001 3.500000
v -1.499999 0.999999 3.500000
v -0.499999 0.999999 3.500000
v 15.500000 -0.000001 7.500000
v 14.500000 -0.000001 7.500000
v 14.500000 0.999999 7.500000
v 15.500000 0.999999 7.500000
v 11.500000 -0.000001 6.500000
v 10.500000 -0.000001 6.500000
v 10.500000 0.999999 6.500000
v 11.500000 0.999999 6.500000
v 13.500000 -0.000001 6.500000
v 12.500000 -0.000001 6.500000
v 12.500000 0.999999 6.500000
v 13.500000 0.999999 6.500000
v 13.500000 -0.000001 3.500000
v 12.500000 -0.000001 3.500000
v 12.500000 0.999999 3.500000
v 13.500000 0.999999 3.500000
v 11.500000 -0.000001 3.500000
v 10.500000 -0.000001 3.500000
v 10.500000 0.999999 3.500000
v 11.500000 0.999999 3.500000
v 10.500000 -0.000000 2.500000
v 9.500000 -0.000000 2.500000
v 9.500000 1.000000 2.500000
v 10.500000 1.000000 2.500000
v 5.500000 -0.000001 4.500000
v 4.500000 -0.000001 4.500000
v 4.500000 0.999999 4.500000
v 5.500000 0.999999 4.500000
v 5.500000 -0.000000 0.500000
v 4.500000 -0.000000 0.500000
v 4.500000 1.000000 0.500000
v 5.500000 1.000000 0.500000
v 8.500000 -0.000000 0.500000
v 7.500000 -0.000000 0.500000
v 7.500000 1.000000 0.500000
v 8.500000 1.000000 0.500000
v 11.500000 -0.000000 0.500000
v 10.500000 -0.000000 0.500000
v 10.500000 1.000000 0.500000
v 11.500000 1.000000 0.500000
v 13.500000 0.000000 -2.500000
v 12.500000 0.000000 -2.500000
v 12.500000 1.000000 -2.500000
v 13.500000 1.000000 -2.500000
v 11.500000 0.000001 -5.500000
v 10.500000 0.000001 -5.500000
v 10.500000 1.000001 -5.500000
v 11.500000 1.000001 -5.500000
v 10.500000 0.000001 -6.500000
v 9.500000 0.000001 -6.500000
v 9.500000 1.000001 -6.500000
v 10.500000 1.000001 -6.500000
v 8.500000 0.000001 -4.500000
v 7.500000 0.000001 -4.500000
v 7.500000 1.000001 -4.500000
v 8.500000 1.000001 -4.500000
v 0.500000 -0.000000 0.500000
v -0.499999 -0.000000 0.500000
v -0.499999 1.000000 0.500000
v 0.500000 1.000000 0.500000
v 8.500000 -0.000001 5.500000
v 8.500000 0.999999 5.500000
v 8.500000 -1.000001 8.500000
v 7.500000 -1.000001 8.500000
v 7.500000 -0.000001 8.500000
v 8.500000 -0.000001 8.500000
vt 0.000100 0.000100
vt 0.999900 0.000100
vt 0.999900 0.999900
vt 0.000100 0.999900
vt 0.000100 0.000100
vt 0.999900 0.000100
vt 0.999900 0.999900
vt 0.000100 0.999900
vt 0.000100 0.000100
vt 0.999900 0.000100
vt 0.999900 0.999900
vt 0.000100 0.999900
vt 0.000100 0.000100
vt 0.999900 0.000100
vt 0.999900 0.999900
vt 0.000100 0.999900
vt 0.000100 0.000100
vt 0.999900 0.000100
vt 0.999900 0.999900
vt 0.000100 0.999900
vt 0.000100 0.000100
vt 0.999900 0.000100
vt 0.999900 0.999900
vt 0.000100 0.999900
vt 0.000100 0.000100
vt 0.999900 0.000100
vt 0.999900 0.999900
vt 0.000100 0.999900
vt 0.000100 0.000100
vt 0.999900 0.000100
vt 0.999900 0.999900
vt 0.000100 0.999900
vt 0.000100 0.000100
vt 0.999900 0.000100
vt 0.999900 0.999900
vt 0.000100 0.999900
vt 0.000100 0.000100
vt 0.999900 0.000100
vt 0.999900 0.999900
vt 0.000100 0.999900
vt 0.000100 0.000100
vt 0.999900 0.000100
vt 0.999900 0.999900
vt 0.000100 0.999900
vt 0.000100 0.000100
vt 0.999900 0.000100
vt 0.999900 0.999900
vt 0.000100 0.999900
vt 0.000100 0.000100
vt 0.999900 0.000100
vt 0.999900 0.999900
vt 0.000100 0.999900
vt 0.000100 0.000100
vt 0.999900 0.000100
vt 0.999900 0.999900
vt 0.000100 0.999900
vt 0.000100 0.000100
vt 0.999900 0.000100
vt 0.999900 0.999900
vt 0.000100 0.999900
vt 0.000100 0.000100
vt 0.999900 0.000100
vt 0.999900 0.999900
vt 0.000100 0.999900
vt 0.000100 0.000100
vt 0.999900 0.000100
vt 0.999900 0.999900
vt 0.000100 0.999900
vt 0.000100 0.000100
vt 0.999900 0.000100
vt 0.999900 0.999900
vt 0.000100 0.999900
vt 0.000100 0.000100
vt 0.999900 0.000100
vt 0.999900 0.999900
vt 0.000100 0.999900
vt 0.000100 0.000100
vt 0.999900 0.000100
vt 0.999900 0.999900
vt 0.000100 0.999900
vt 0.000100 0.000100
vt 0.999900 0.000100
vt 0.999900 0.999900
vt 0.000100 0.999900
vt 0.000100 0.000100
vt 0.999900 0.000100
vt 0.999900 0.999900
vt 0.000100 0.999900
vt 0.000100 0.000100
vt 0.999900 0.000100
vt 0.999900 0.999900
vt 0.000100 0.999900
vt 0.000100 0.000100
vt 0.999900 0.000100
vt 0.999900 0.999900
vt 0.000100 0.999900
vt 0.000100 0.000100
vt 0.999900 0.000100
vt 0.999900 0.999900
vt 0.000100 0.999900
vt 0.000100 0.000100
vt 0.999900 0.000100
vt 0.999900 0.999900
vt 0.000100 0.999900
vt 0.000100 0.000100
vt 0.999900 0.000100
vt 0.999900 0.999900
vt 0.000100 0.999900
vt 0.000100 0.000100
vt 0.999900 0.000100
vt 0.999900 0.999900
vt 0.000100 0.999900
vt 0.000100 0.000100
vt 0.999900 0.000100
vt 0.999900 0.999900
vt 0.000100 0.999900
vt 0.000100 0.000100
vt 0.999900 0.000100
vt 0.999900 0.999900
vt 0.000100 0.999900
vt 0.000100 0.000100
vt 0.999900 0.000100
vt 0.999900 0.999900
vt 0.000100 0.999900
vt 0.000100 0.000100
vt 0.999900 0.000100
vt 0.999900 0.999900
vt 0.000100 0.999900
vt 0.000100 0.000100
vt 0.999900 0.000100
vt 0.999900 0.999900
vt 0.000100 0.999900
vt 0.000100 0.000100
vt 0.999900 0.000100
vt 0.999900 0.999900
vt 0.000100 0.999900
vt 0.000100 0.000100
vt 0.999900 0.000100
vt 0.999900 0.999900
vt 0.000100 0.999900
vt 0.000100 0.000100
vt 0.999900 0.000100
vt 0.999900 0.999900
vt 0.000100 0.999900
vt 0.000100 0.000100
vt 0.999900 0.000100
vt 0.999900 0.999900
vt 0.000100 0.999900
vt 0.000100 0.000100
vt 0.999900 0.000100
vt 0.999900 0.999900
vt 0.000100 0.999900
vt 0.000100 0.000100
vt 0.999900 0.000100
vt 0.999900 0.999900
vt 0.000100 0.999900
vt 0.000100 0.000100
vt 0.999900 0.000100
vt 0.999900 0.999900
vt 0.000100 0.999900
vt 0.000100 0.000100
vt 0.999900 0.000100
vt 0.999900 0.999900
vt 0.000100 0.999900
vt 0.000100 0.000100
vt 0.999900 0.000100
vt 0.999900 0.999900
vt 0.000100 0.999900
vt 0.000100 0.000100
vt 0.999900 0.000100
vt 0.999900 0.999900
vt 0.000100 0.999900
vt 0.000100 0.000100
vt 0.999900 0.000100
vt 0.999900 0.999900
vt 0.000100 0.999900
vt 0.000100 0.000100
vt 0.999900 0.000100
vt 0.999900 0.999900
vt 0.000100 0.999900
vt 0.000100 0.000100
vt 0.999900 0.000100
vt 0.999900 0.999900
vt 0.000100 0.999900
vt 0.000100 0.000100
vt 0.999900 0.000100
vt 0.999900 0.999900
vt 0.000100 0.999900
vt 0.000100 0.000100
vt 0.999900 0.000100
vt 0.999900 0.999900
vt 0.000100 0.999900
vt 0.000100 0.000100
vt 0.999900 0.000100
vt 0.999900 0.999900
vt 0.000100 0.999900
vt 0.000100 0.000100
vt 0.999900 0.000100
vt 0.999900 0.999900
vt 0.000100 0.999900
vt 0.000100 0.000100
vt 0.999900 0.000100
vt 0.999900 0.999900
vt 0.000100 0.999900
vt 0.000100 0.000100
vt 0.999900 0.000100
vt 0.999900 0.999900
vt 0.000100 0.999900
vt 0.000100 0.000100
vt 0.999900 0.000100
vt 0.999900 0.999900
vt 0.000100 0.999900
vt 0.000100 0.000100
vt 0.999900 0.000100
vt 0.999900 0.999900
vt 0.000100 0.999900
vt 0.000100 0.000100
vt 0.999900 0.000100
vt 0.999900 0.999900
vt 0.000100 0.999900
vt 0.000100 0.000100
vt 0.999900 0.000100
vt 0.999900 0.999900
vt 0.000100 0.999900
vt 0.000100 0.000100
vt 0.999900 0.000100
vt 0.999900 0.999900
vt 0.000100 0.999900
vt 0.000100 0.000100
vt 0.999900 0.000100
vt 0.999900 0.999900
vt 0.000100 0.999900
vt 0.000100 0.000100
vt 0.999900 0.000100
vt 0.999900 0.999900
vt 0.000100 0.999900
vt 0.000100 0.000100
vt 0.999900 0.000100
vt 0.999900 0.999900
vt 0.000100 0.999900
vt 0.000100 0.000100
vt 0.999900 0.000100
vt 0.999900 0.999900
vt 0.000100 0.999900
vt 0.000100 0.000100
vt 0.999900 0.000100
vt 0.999900 0.999900
vt 0.000100 0.999900
vt 0.000100 0.000100
vt 0.999900 0.000100
vt 0.999900 0.999900
vt 0.000100 0.999900
vt 0.000100 0.000100
vt 0.999900 0.000100
vt 0.999900 0.999900
vt 0.000100 0.999900
vt 0.000100 0.000100
vt 0.999900 0.000100
vt 0.999900 0.999900
vt 0.000100 0.999900
vt 0.000100 0.000100
vt 0.999900 0.000100
vt 0.999900 0.999900
vt 0.000100 0.999900
vt 0.000100 0.000100
vt 0.999900 0.000100
vt 0.999900 0.999900
vt 0.000100 0.999900
vt 0.000100 0.000100
vt 0.999900 0.000100
vt 0.999900 0.999900
vt 0.000100 0.999900
vt 0.000100 0.000100
vt 0.999900 0.000100
vt 0.999900 0.999900
vt 0.000100 0.999900
vt 0.000100 0.000100
vt 0.999900 0.000100
vt 0.999900 0.999900
vt 0.000100 0.999900
vt 0.000100 0.000100
vt 0.999900 0.000100
vt 0.999900 0.999900
vt 0.000100 0.999900
vt 0.000100 0.000100
vt 0.999900 0.000100
vt 0.999900 0.999900
vt 0.000100 0.999900
vt 0.000100 0.000100
vt 0.999900 0.000100
vt 0.999900 0.999900
vt 0.000100 0.999900
vt 0.000100 0.000100
vt 0.999900 0.000100
vt 0.999900 0.999900
vt 0.000100 0.999900
vt 0.000100 0.000100
vt 0.999900 0.000100
vt 0.999900 0.999900
vt 0.000100 0.999900
vt 0.000100 0.000100
vt 0.999900 0.000100
vt 0.999900 0.999900
vt 0.000100 0.999900
vt 0.000100 0.000100
vt 0.999900 0.000100
vt 0.999900 0.999900
vt 0.000100 0.999900
vt 0.000100 0.000100
vt 0.999900 0.000100
vt 0.999900 0.999900
vt 0.000100 0.999900
vt 0.000100 0.000100
vt 0.999900 0.000100
vt 0.999900 0.999900
vt 0.000100 0.999900
vt 0.000100 0.000100
vt 0.999900 0.000100
vt 0.999900 0.999900
vt 0.000100 0.999900
vt 0.000100 0.000100
vt 0.999900 0.000100
vt 0.999900 0.999900
vt 0.000100 0.999900
vt 0.000100 0.000100
vt 0.999900 0.000100
vt 0.999900 0.999900
vt 0.000100 0.999900
vn 0.0000 0.0000 -1.0000
usemtl Material.003
s 1
f 1/1/1 2/2/1 3/3/1 4/4/1
f 5/5/1 6/6/1 7/7/1 8/8/1
f 9/9/1 10/10/1 11/11/1 12/12/1
f 13/13/1 14/14/1 15/15/1 16/16/1
f 17/17/1 18/18/1 19/19/1 20/20/1
f 21/21/1 22/22/1 23/23/1 24/24/1
f 25/25/1 26/26/1 27/27/1 28/28/1
f 29/29/1 30/30/1 31/31/1 32/32/1
f 33/33/1 34/34/1 35/35/1 36/36/1
f 37/37/1 38/38/1 39/39/1 40/40/1
f 41/41/1 42/42/1 43/43/1 44/44/1
f 45/45/1 46/46/1 47/47/1 48/48/1
f 49/49/1 50/50/1 51/51/1 52/52/1
f 53/53/1 54/54/1 55/55/1 56/56/1
f 57/57/1 58/58/1 59/59/1 60/60/1
f 61/61/1 62/62/1 63/63/1 64/64/1
f 65/65/1 66/66/1 67/67/1 68/68/1
f 69/69/1 70/70/1 71/71/1 72/72/1
f 73/73/1 74/74/1 75/75/1 76/76/1
f 77/77/1 78/78/1 79/79/1 80/80/1
f 81/81/1 82/82/1 83/83/1 84/84/1
f 85/85/1 86/86/1 87/87/1 88/88/1
f 89/89/1 90/90/1 91/91/1 92/92/1
f 93/93/1 94/94/1 95/95/1 96/96/1
f 97/97/1 98/98/1 99/99/1 100/100/1
f 101/101/1 102/102/1 103/103/1 104/104/1
f 105/105/1 106/106/1 107/107/1 108/108/1
f 109/109/1 110/110/1 111/111/1 112/112/1
f 113/113/1 114/114/1 115/115/1 116/116/1
f 117/117/1 118/118/1 119/119/1 120/120/1
f 121/121/1 122/122/1 123/123/1 124/124/1
f 125/125/1 126/126/1 127/127/1 128/128/1
f 129/129/1 130/130/1 131/131/1 132/132/1
f 133/133/1 134/134/1 135/135/1 136/136/1
f 137/137/1 138/138/1 139/139/1 140/140/1
f 141/141/1 142/142/1 143/143/1 144/144/1
f 145/145/1 146/146/1 147/147/1 148/148/1
f 149/149/1 150/150/1 151/151/1 152/152/1
f 153/153/1 154/154/1 155/155/1 156/156/1
f 157/157/1 158/158/1 159/159/1 160/160/1
f 161/161/1 162/162/1 163/163/1 164/164/1
f 165/165/1 166/166/1 167/167/1 168/168/1
f 169/169/1 170/170/1 171/171/1 172/172/1
f 173/173/1 174/174/1 175/175/1 176/176/1
f 177/177/1 178/178/1 179/179/1 180/180/1
f 181/181/1 182/182/1 183/183/1 184/184/1
f 187/185/1 188/186/1 189/187/1 190/188/1
f 193/189/1 194/190/1 195/191/1 196/192/1
f 197/193/1 198/194/1 199/195/1 200/196/1
f 201/197/1 202/198/1 203/199/1 204/200/1
f 205/201/1 206/202/1 207/203/1 208/204/1
f 209/205/1 210/206/1 211/207/1 212/208/1
f 215/209/1 216/210/1 217/211/1 218/212/1
f 219/213/1 220/214/1 221/215/1 222/216/1
f 223/217/1 224/218/1 225/219/1 226/220/1
f 227/221/1 228/222/1 229/223/1 230/224/1
f 231/225/1 232/226/1 233/227/1 234/228/1
f 235/229/1 236/230/1 237/231/1 238/232/1
f 239/233/1 240/234/1 241/235/1 242/236/1
f 243/237/1 244/238/1 245/239/1 246/240/1
f 247/241/1 248/242/1 249/243/1 250/244/1
f 251/245/1 252/246/1 253/247/1 254/248/1
f 255/249/1 256/250/1 257/251/1 258/252/1
f 259/253/1 260/254/1 261/255/1 262/256/1
f 263/257/1 264/258/1 265/259/1 266/260/1
f 267/261/1 268/262/1 269/263/1 270/264/1
f 271/265/1 272/266/1 273/267/1 274/268/1
f 275/269/1 276/270/1 277/271/1 278/272/1
f 279/273/1 280/274/1 281/275/1 282/276/1
f 283/277/1 284/278/1 285/279/1 286/280/1
f 287/281/1 288/282/1 289/283/1 290/284/1
f 291/285/1 292/286/1 293/287/1 294/288/1
f 295/289/1 296/290/1 297/291/1 298/292/1
f 299/293/1 300/294/1 301/295/1 302/296/1
f 303/297/1 304/298/1 305/299/1 306/300/1
f 307/301/1 308/302/1 309/303/1 310/304/1
f 311/305/1 312/306/1 313/307/1 314/308/1
f 315/309/1 316/310/1 317/311/1 318/312/1
f 319/313/1 320/314/1 321/315/1 322/316/1
f 323/317/1 324/318/1 325/319/1 326/320/1
f 327/321/1 328/322/1 329/323/1 330/324/1
f 333/325/1 334/326/1 335/327/1 336/328/1
l 331 332
l 191 192
l 213 214
l 185 186
