# Blender v3.2.0 OBJ File: 'Dungeon2.blend'
# www.blender.org
mtllib Door2.mtl
o Door1_Cube.001
v 3.980708 0.000000 3.399166
v 3.980708 0.909484 3.399166
v 3.980708 0.000000 2.600834
v 3.980708 0.909484 2.600834
v 4.019293 0.000000 3.399166
v 4.019293 0.909484 3.399166
v 4.019293 0.000000 2.600834
v 4.019293 0.909484 2.600834
vt 0.439959 0.013513
vt 0.439851 0.493265
vt 0.013119 0.493766
vt 0.013757 0.013825
vt 0.854768 0.176000
vt 0.854768 0.708542
vt 0.832175 0.708542
vt 0.832175 0.176000
vt 0.439794 0.506923
vt 0.440471 0.986132
vt 0.013669 0.986798
vt 0.014336 0.506923
vt 0.938225 0.054328
vt 0.938225 0.586870
vt 0.915632 0.586870
vt 0.915632 0.054328
vt 0.738328 0.517750
vt 0.760921 0.517750
vt 0.760921 0.985207
vt 0.738328 0.985207
vt 0.669333 0.523209
vt 0.691926 0.523209
vt 0.691926 0.990667
vt 0.669333 0.990667
vn -1.0000 0.0000 0.0000
vn 0.0000 0.0000 -1.0000
vn 1.0000 0.0000 0.0000
vn 0.0000 0.0000 1.0000
vn 0.0000 -1.0000 0.0000
vn 0.0000 1.0000 0.0000
usemtl Material.004
s off
f 1/1/1 2/2/1 4/3/1 3/4/1
f 3/5/2 4/6/2 8/7/2 7/8/2
f 7/9/3 8/10/3 6/11/3 5/12/3
f 5/13/4 6/14/4 2/15/4 1/16/4
f 3/17/5 7/18/5 5/19/5 1/20/5
f 8/21/6 4/22/6 2/23/6 6/24/6
