# Blender v3.2.0 OBJ File: ''
# www.blender.org
mtllib WallWest.mtl
o WallW_Plane.684
v 9.500000 0.000001 -7.500000
v 9.500000 0.000001 -8.500000
v 9.500000 1.000001 -8.500000
v 9.500000 1.000001 -7.500000
v 9.500000 0.000001 -6.500000
v 9.500000 0.000001 -7.500000
v 9.500000 1.000001 -7.500000
v 9.500000 1.000001 -6.500000
v 11.500000 0.000001 -4.500000
v 11.500000 0.000001 -5.500000
v 11.500000 1.000001 -5.500000
v 11.500000 1.000001 -4.500000
v 11.500000 0.000001 -3.500000
v 11.500000 1.000001 -3.500000
v 11.500000 0.000000 -0.500000
v 11.500000 0.000000 -1.500000
v 11.500000 1.000000 -1.500000
v 11.500000 1.000000 -0.500000
v 11.500000 0.000000 -1.500000
v 11.500000 0.000000 -2.500000
v 11.500000 1.000000 -2.500000
v 11.500000 1.000000 -1.500000
v 11.500000 0.000000 -2.500000
v 11.500000 0.000001 -3.500000
v 11.500000 1.000001 -3.500000
v 11.500000 1.000000 -2.500000
v -0.499999 0.000000 -1.500000
v -0.499999 0.000000 -2.500000
v -0.499999 1.000000 -2.500000
v -0.499999 1.000000 -1.500000
v -0.499999 0.000000 -0.500000
v -0.499999 0.000000 -1.500000
v -0.499999 1.000000 -1.500000
v -0.499999 1.000000 -0.500000
v -0.499999 -0.000000 0.500000
v -0.499999 0.000000 -0.500000
v -0.499999 1.000000 -0.500000
v -0.499999 1.000000 0.500000
v -0.499999 0.000000 -2.500000
v -0.499999 0.000001 -3.500000
v -0.499999 1.000001 -3.500000
v -0.499999 1.000000 -2.500000
v -0.499999 0.000001 -3.500000
v -0.499999 0.000001 -4.500000
v -0.499999 1.000001 -4.500000
v -0.499999 1.000001 -3.500000
v -4.499999 -0.000001 6.500000
v -4.499999 -0.000001 5.500000
v -4.499999 0.999999 5.500000
v -4.499999 0.999999 6.500000
v -4.499999 -0.000001 7.500000
v -4.499999 -0.000001 6.500000
v -4.499999 0.999999 6.500000
v -4.499999 0.999999 7.500000
v -4.499999 -0.000002 10.500000
v -4.499999 -0.000002 9.500000
v -4.499999 0.999998 9.500000
v -4.499999 0.999998 10.500000
v -4.499999 -0.000002 9.500000
v -4.499999 -0.000001 8.500000
v -4.499999 0.999999 8.500000
v -4.499999 0.999998 9.500000
v -4.499999 -0.000001 8.500000
v -4.499999 -0.000001 7.500000
v -4.499999 0.999999 7.500000
v -4.499999 0.999999 8.500000
v -2.499999 -0.000001 7.500000
v -2.499999 -0.000001 6.500000
v -2.499999 0.999999 6.500000
v -2.499999 0.999999 7.500000
v -2.499999 -0.000001 8.500000
v -2.499999 -0.000001 7.500000
v -2.499999 0.999999 7.500000
v -2.499999 0.999999 8.500000
v -2.499999 -0.000002 9.500000
v -2.499999 -0.000001 8.500000
v -2.499999 0.999999 8.500000
v -2.499999 0.999998 9.500000
v 14.500000 -0.000001 6.500000
v 14.500000 -0.000001 5.500000
v 14.500000 0.999999 5.500000
v 14.500000 0.999999 6.500000
v 14.500000 -0.000001 5.500000
v 14.500000 -0.000001 4.500000
v 14.500000 0.999999 4.500000
v 14.500000 0.999999 5.500000
v 11.500000 -0.000002 9.500000
v 11.500000 -0.000001 8.500000
v 11.500000 0.999999 8.500000
v 11.500000 0.999998 9.500000
v 11.500000 -0.000000 2.500000
v 11.500000 -0.000000 1.500000
v 11.500000 1.000000 1.500000
v 11.500000 1.000000 2.500000
v 11.500000 -0.000000 1.500000
v 11.500000 -0.000000 0.500000
v 11.500000 1.000000 0.500000
v 11.500000 1.000000 1.500000
v 10.500000 -0.000001 5.500000
v 10.500000 -0.000001 4.500000
v 10.500000 0.999999 4.500000
v 10.500000 0.999999 5.500000
v 10.500000 -0.000001 6.500000
v 10.500000 -0.000001 5.500000
v 10.500000 0.999999 5.500000
v 10.500000 0.999999 6.500000
v 8.500000 -0.000001 7.500000
v 8.500000 -0.000001 6.500000
v 8.500000 0.999999 6.500000
v 8.500000 0.999999 7.500000
v 8.500000 -0.000001 6.500000
v 8.500000 -0.000001 5.500000
v 8.500000 0.999999 5.500000
v 8.500000 0.999999 6.500000
v 3.500000 0.000000 -2.500000
v 3.500000 0.000001 -3.500000
v 3.500000 1.000001 -3.500000
v 3.500000 1.000000 -2.500000
v 3.500000 0.000000 -1.500000
v 3.500000 0.000000 -2.500000
v 3.500000 1.000000 -2.500000
v 3.500000 1.000000 -1.500000
v 4.500000 -0.000001 4.500000
v 4.500000 -0.000001 3.500000
v 4.500000 0.999999 3.500000
v 4.500000 0.999999 4.500000
v -0.499999 -0.000001 4.500000
v -0.499999 -0.000001 3.500000
v -0.499999 0.999999 3.500000
v -0.499999 0.999999 4.500000
v -0.499999 -0.000000 2.500000
v -0.499999 -0.000000 1.500000
v -0.499999 1.000000 1.500000
v -0.499999 1.000000 2.500000
v 8.500000 -0.000000 1.500000
v 8.500000 -0.000000 0.500000
v 8.500000 1.000000 0.500000
v 8.500000 1.000000 1.500000
v 8.500000 -0.000000 2.500000
v 8.500000 -0.000000 1.500000
v 8.500000 1.000000 1.500000
v 8.500000 1.000000 2.500000
v 8.500000 -0.000001 3.500000
v 8.500000 -0.000000 2.500000
v 8.500000 1.000000 2.500000
v 8.500000 0.999999 3.500000
v 5.500000 0.000001 -3.500000
v 5.500000 0.000001 -4.500000
v 5.500000 1.000001 -4.500000
v 5.500000 1.000001 -3.500000
v 5.500000 0.000001 -4.500000
v 5.500000 0.000001 -5.500000
v 5.500000 1.000001 -5.500000
v 5.500000 1.000001 -4.500000
v 5.500000 0.000001 -5.500000
v 5.500000 0.000001 -6.500000
v 5.500000 1.000001 -6.500000
v 5.500000 1.000001 -5.500000
v 9.500000 0.000000 -1.500000
v 9.500000 0.000000 -2.500000
v 9.500000 1.000000 -2.500000
v 9.500000 1.000000 -1.500000
v 9.500000 0.000000 -0.500000
v 9.500000 0.000000 -1.500000
v 9.500000 1.000000 -1.500000
v 9.500000 1.000000 -0.500000
v 9.500000 -0.000000 0.500000
v 9.500000 0.000000 -0.500000
v 9.500000 1.000000 -0.500000
v 9.500000 1.000000 0.500000
v 6.500000 -0.000000 2.500000
v 6.500000 -0.000000 1.500000
v 6.500000 1.000000 1.500000
v 6.500000 1.000000 2.500000
v 6.500000 -0.000000 1.500000
v 6.500000 -0.000000 0.500000
v 6.500000 1.000000 0.500000
v 6.500000 1.000000 1.500000
v 6.500000 -0.000000 0.500000
v 6.500000 0.000000 -0.500000
v 6.500000 1.000000 -0.500000
v 6.500000 1.000000 0.500000
v -2.499999 -0.000001 3.500000
v -2.499999 -0.000000 2.500000
v -2.499999 1.000000 2.500000
v -2.499999 0.999999 3.500000
v -2.499999 -0.000001 4.500000
v -2.499999 -0.000001 3.500000
v -2.499999 0.999999 3.500000
v -2.499999 0.999999 4.500000
v -2.499999 -0.000001 5.500000
v -2.499999 -0.000001 4.500000
v -2.499999 0.999999 4.500000
v -2.499999 0.999999 5.500000
v -5.499999 -0.000002 13.500000
v -5.499999 -0.000002 12.500000
v -5.499999 0.999998 12.500000
v -5.499999 0.999998 13.500000
v -5.499999 -0.000002 12.500000
v -5.499999 -0.000002 11.500000
v -5.499999 0.999998 11.500000
v -5.499999 0.999998 12.500000
v -5.499999 -0.000002 11.500000
v -5.499999 -0.000002 10.500000
v -5.499999 0.999998 10.500000
v -5.499999 0.999998 11.500000
v 3.500000 -0.000002 9.500000
v 3.500000 -0.000001 8.500000
v 3.500000 0.999999 8.500000
v 3.500000 0.999998 9.500000
v 3.500000 -0.000002 10.500000
v 3.500000 -0.000002 9.500000
v 3.500000 0.999998 9.500000
v 3.500000 0.999998 10.500000
v 1.500001 -0.000002 10.500000
v 1.500001 -0.000002 9.500000
v 1.500001 0.999998 9.500000
v 1.500001 0.999998 10.500000
v 0.500001 -0.000002 11.500000
v 0.500001 -0.000002 10.500000
v 0.500001 0.999998 10.500000
v 0.500001 0.999998 11.500000
v 6.500000 -0.000002 10.500000
v 6.500000 -0.000002 9.500000
v 6.500000 0.999998 9.500000
v 6.500000 0.999998 10.500000
v 7.500000 0.000000 -1.500000
v 7.500000 0.000000 -2.500000
v 7.500000 1.000000 -2.500000
v 7.500000 1.000000 -1.500000
v 5.500000 0.000000 -0.500000
v 5.500000 0.000000 -1.500000
v 5.500000 1.000000 -1.500000
v 5.500000 1.000000 -0.500000
v 2.500000 0.000000 -0.500000
v 2.500000 0.000000 -1.500000
v 2.500000 1.000000 -1.500000
v 2.500000 1.000000 -0.500000
v 2.500000 -0.000000 1.500000
v 2.500000 -0.000000 0.500000
v 2.500000 1.000000 0.500000
v 2.500000 1.000000 1.500000
v 4.500000 -0.000000 2.500000
v 4.500000 -0.000000 1.500000
v 4.500000 1.000000 1.500000
v 4.500000 1.000000 2.500000
v 5.500000 -0.000001 5.500000
v 5.500000 -0.000001 4.500000
v 5.500000 0.999999 4.500000
v 5.500000 0.999999 5.500000
v 7.500000 -0.000001 4.500000
v 7.500000 -0.000001 3.500000
v 7.500000 0.999999 3.500000
v 7.500000 0.999999 4.500000
v 9.500000 -0.000001 8.500000
v 9.500000 -0.000001 7.500000
v 9.500000 0.999999 7.500000
v 9.500000 0.999999 8.500000
v 13.500000 -0.000001 7.500000
v 13.500000 -0.000001 6.500000
v 13.500000 0.999999 6.500000
v 13.500000 0.999999 7.500000
v 11.500000 -0.000001 7.500000
v 11.500000 -0.000001 6.500000
v 11.500000 0.999999 6.500000
v 11.500000 0.999999 7.500000
v 10.500000 -0.000001 3.500000
v 10.500000 -0.000000 2.500000
v 10.500000 1.000000 2.500000
v 10.500000 0.999999 3.500000
v 13.500000 -0.000001 4.500000
v 13.500000 -0.000001 3.500000
v 13.500000 0.999999 3.500000
v 13.500000 0.999999 4.500000
v 14.500000 -0.000001 3.500000
v 14.500000 -0.000000 2.500000
v 14.500000 1.000000 2.500000
v 14.500000 0.999999 3.500000
v 10.500000 0.000001 -5.500000
v 10.500000 0.000001 -6.500000
v 10.500000 1.000001 -6.500000
v 10.500000 1.000001 -5.500000
v 8.500000 0.000001 -3.500000
v 8.500000 0.000001 -4.500000
v 8.500000 1.000001 -4.500000
v 8.500000 1.000001 -3.500000
v 7.500000 0.000001 -4.500000
v 7.500000 0.000001 -5.500000
v 7.500000 1.000001 -5.500000
v 7.500000 1.000001 -4.500000
v 11.500000 -0.000001 4.500000
v 11.500000 -0.000001 3.500000
v 11.500000 0.999999 3.500000
v 11.500000 0.999999 4.500000
vt 0.000100 0.000100
vt 0.999900 0.000100
vt 0.999900 0.999900
vt 0.000100 0.999900
vt 0.000100 0.000100
vt 0.999900 0.000100
vt 0.999900 0.999900
vt 0.000100 0.999900
vt 0.000100 0.000100
vt 0.999900 0.000100
vt 0.999900 0.999900
vt 0.000100 0.999900
vt 0.000100 0.000100
vt 0.999900 0.000100
vt 0.999900 0.999900
vt 0.000100 0.999900
vt 0.000100 0.000100
vt 0.999900 0.000100
vt 0.999900 0.999900
vt 0.000100 0.999900
vt 0.000100 0.000100
vt 0.999900 0.000100
vt 0.999900 0.999900
vt 0.000100 0.999900
vt 0.000100 0.000100
vt 0.999900 0.000100
vt 0.999900 0.999900
vt 0.000100 0.999900
vt 0.000100 0.000100
vt 0.999900 0.000100
vt 0.999900 0.999900
vt 0.000100 0.999900
vt 0.000100 0.000100
vt 0.999900 0.000100
vt 0.999900 0.999900
vt 0.000100 0.999900
vt 0.000100 0.000100
vt 0.999900 0.000100
vt 0.999900 0.999900
vt 0.000100 0.999900
vt 0.000100 0.000100
vt 0.999900 0.000100
vt 0.999900 0.999900
vt 0.000100 0.999900
vt 0.000100 0.000100
vt 0.999900 0.000100
vt 0.999900 0.999900
vt 0.000100 0.999900
vt 0.000100 0.000100
vt 0.999900 0.000100
vt 0.999900 0.999900
vt 0.000100 0.999900
vt 0.000100 0.000100
vt 0.999900 0.000100
vt 0.999900 0.999900
vt 0.000100 0.999900
vt 0.000100 0.000100
vt 0.999900 0.000100
vt 0.999900 0.999900
vt 0.000100 0.999900
vt 0.000100 0.000100
vt 0.999900 0.000100
vt 0.999900 0.999900
vt 0.000100 0.999900
vt 0.000100 0.000100
vt 0.999900 0.000100
vt 0.999900 0.999900
vt 0.000100 0.999900
vt 0.000100 0.000100
vt 0.999900 0.000100
vt 0.999900 0.999900
vt 0.000100 0.999900
vt 0.000100 0.000100
vt 0.999900 0.000100
vt 0.999900 0.999900
vt 0.000100 0.999900
vt 0.000100 0.000100
vt 0.999900 0.000100
vt 0.999900 0.999900
vt 0.000100 0.999900
vt 0.000100 0.000100
vt 0.999900 0.000100
vt 0.999900 0.999900
vt 0.000100 0.999900
vt 0.000100 0.000100
vt 0.999900 0.000100
vt 0.999900 0.999900
vt 0.000100 0.999900
vt 0.000100 0.000100
vt 0.999900 0.000100
vt 0.999900 0.999900
vt 0.000100 0.999900
vt 0.000100 0.000100
vt 0.999900 0.000100
vt 0.999900 0.999900
vt 0.000100 0.999900
vt 0.000100 0.000100
vt 0.999900 0.000100
vt 0.999900 0.999900
vt 0.000100 0.999900
vt 0.000100 0.000100
vt 0.999900 0.000100
vt 0.999900 0.999900
vt 0.000100 0.999900
vt 0.000100 0.000100
vt 0.999900 0.000100
vt 0.999900 0.999900
vt 0.000100 0.999900
vt 0.000100 0.000100
vt 0.999900 0.000100
vt 0.999900 0.999900
vt 0.000100 0.999900
vt 0.000100 0.000100
vt 0.999900 0.000100
vt 0.999900 0.999900
vt 0.000100 0.999900
vt 0.000100 0.000100
vt 0.999900 0.000100
vt 0.999900 0.999900
vt 0.000100 0.999900
vt 0.000100 0.000100
vt 0.999900 0.000100
vt 0.999900 0.999900
vt 0.000100 0.999900
vt 0.000100 0.000100
vt 0.999900 0.000100
vt 0.999900 0.999900
vt 0.000100 0.999900
vt 0.000100 0.000100
vt 0.999900 0.000100
vt 0.999900 0.999900
vt 0.000100 0.999900
vt 0.000100 0.000100
vt 0.999900 0.000100
vt 0.999900 0.999900
vt 0.000100 0.999900
vt 0.000100 0.000100
vt 0.999900 0.000100
vt 0.999900 0.999900
vt 0.000100 0.999900
vt 0.000100 0.000100
vt 0.999900 0.000100
vt 0.999900 0.999900
vt 0.000100 0.999900
vt 0.000100 0.000100
vt 0.999900 0.000100
vt 0.999900 0.999900
vt 0.000100 0.999900
vt 0.000100 0.000100
vt 0.999900 0.000100
vt 0.999900 0.999900
vt 0.000100 0.999900
vt 0.000100 0.000100
vt 0.999900 0.000100
vt 0.999900 0.999900
vt 0.000100 0.999900
vt 0.000100 0.000100
vt 0.999900 0.000100
vt 0.999900 0.999900
vt 0.000100 0.999900
vt 0.000100 0.000100
vt 0.999900 0.000100
vt 0.999900 0.999900
vt 0.000100 0.999900
vt 0.000100 0.000100
vt 0.999900 0.000100
vt 0.999900 0.999900
vt 0.000100 0.999900
vt 0.000100 0.000100
vt 0.999900 0.000100
vt 0.999900 0.999900
vt 0.000100 0.999900
vt 0.000100 0.000100
vt 0.999900 0.000100
vt 0.999900 0.999900
vt 0.000100 0.999900
vt 0.000100 0.000100
vt 0.999900 0.000100
vt 0.999900 0.999900
vt 0.000100 0.999900
vt 0.000100 0.000100
vt 0.999900 0.000100
vt 0.999900 0.999900
vt 0.000100 0.999900
vt 0.000100 0.000100
vt 0.999900 0.000100
vt 0.999900 0.999900
vt 0.000100 0.999900
vt 0.000100 0.000100
vt 0.999900 0.000100
vt 0.999900 0.999900
vt 0.000100 0.999900
vt 0.000100 0.000100
vt 0.999900 0.000100
vt 0.999900 0.999900
vt 0.000100 0.999900
vt 0.000100 0.000100
vt 0.999900 0.000100
vt 0.999900 0.999900
vt 0.000100 0.999900
vt 0.000100 0.000100
vt 0.999900 0.000100
vt 0.999900 0.999900
vt 0.000100 0.999900
vt 0.000100 0.000100
vt 0.999900 0.000100
vt 0.999900 0.999900
vt 0.000100 0.999900
vt 0.000100 0.000100
vt 0.999900 0.000100
vt 0.999900 0.999900
vt 0.000100 0.999900
vt 0.000100 0.000100
vt 0.999900 0.000100
vt 0.999900 0.999900
vt 0.000100 0.999900
vt 0.000100 0.000100
vt 0.999900 0.000100
vt 0.999900 0.999900
vt 0.000100 0.999900
vt 0.000100 0.000100
vt 0.999900 0.000100
vt 0.999900 0.999900
vt 0.000100 0.999900
vt 0.000100 0.000100
vt 0.999900 0.000100
vt 0.999900 0.999900
vt 0.000100 0.999900
vt 0.000100 0.000100
vt 0.999900 0.000100
vt 0.999900 0.999900
vt 0.000100 0.999900
vt 0.000100 0.000100
vt 0.999900 0.000100
vt 0.999900 0.999900
vt 0.000100 0.999900
vt 0.000100 0.000100
vt 0.999900 0.000100
vt 0.999900 0.999900
vt 0.000100 0.999900
vt 0.000100 0.000100
vt 0.999900 0.000100
vt 0.999900 0.999900
vt 0.000100 0.999900
vt 0.000100 0.000100
vt 0.999900 0.000100
vt 0.999900 0.999900
vt 0.000100 0.999900
vt 0.000100 0.000100
vt 0.999900 0.000100
vt 0.999900 0.999900
vt 0.000100 0.999900
vt 0.000100 0.000100
vt 0.999900 0.000100
vt 0.999900 0.999900
vt 0.000100 0.999900
vt 0.000100 0.000100
vt 0.999900 0.000100
vt 0.999900 0.999900
vt 0.000100 0.999900
vt 0.000100 0.000100
vt 0.999900 0.000100
vt 0.999900 0.999900
vt 0.000100 0.999900
vt 0.000100 0.000100
vt 0.999900 0.000100
vt 0.999900 0.999900
vt 0.000100 0.999900
vt 0.000100 0.000100
vt 0.999900 0.000100
vt 0.999900 0.999900
vt 0.000100 0.999900
vt 0.000100 0.000100
vt 0.999900 0.000100
vt 0.999900 0.999900
vt 0.000100 0.999900
vt 0.000100 0.000100
vt 0.999900 0.000100
vt 0.999900 0.999900
vt 0.000100 0.999900
vt 0.000100 0.000100
vt 0.999900 0.000100
vt 0.999900 0.999900
vt 0.000100 0.999900
vt 0.000100 0.000100
vt 0.999900 0.000100
vt 0.999900 0.999900
vt 0.000100 0.999900
vt 0.000100 0.000100
vt 0.999900 0.000100
vt 0.999900 0.999900
vt 0.000100 0.999900
vn 1.0000 0.0000 0.0000
usemtl Material.003
s 1
f 1/1/1 2/2/1 3/3/1 4/4/1
f 5/5/1 6/6/1 7/7/1 8/8/1
f 9/9/1 10/10/1 11/11/1 12/12/1
f 15/13/1 16/14/1 17/15/1 18/16/1
f 19/17/1 20/18/1 21/19/1 22/20/1
f 23/21/1 24/22/1 25/23/1 26/24/1
f 27/25/1 28/26/1 29/27/1 30/28/1
f 31/29/1 32/30/1 33/31/1 34/32/1
f 35/33/1 36/34/1 37/35/1 38/36/1
f 39/37/1 40/38/1 41/39/1 42/40/1
f 43/41/1 44/42/1 45/43/1 46/44/1
f 47/45/1 48/46/1 49/47/1 50/48/1
f 51/49/1 52/50/1 53/51/1 54/52/1
f 55/53/1 56/54/1 57/55/1 58/56/1
f 59/57/1 60/58/1 61/59/1 62/60/1
f 63/61/1 64/62/1 65/63/1 66/64/1
f 67/65/1 68/66/1 69/67/1 70/68/1
f 71/69/1 72/70/1 73/71/1 74/72/1
f 75/73/1 76/74/1 77/75/1 78/76/1
f 79/77/1 80/78/1 81/79/1 82/80/1
f 83/81/1 84/82/1 85/83/1 86/84/1
f 87/85/1 88/86/1 89/87/1 90/88/1
f 91/89/1 92/90/1 93/91/1 94/92/1
f 95/93/1 96/94/1 97/95/1 98/96/1
f 99/97/1 100/98/1 101/99/1 102/100/1
f 103/101/1 104/102/1 105/103/1 106/104/1
f 107/105/1 108/106/1 109/107/1 110/108/1
f 111/109/1 112/110/1 113/111/1 114/112/1
f 115/113/1 116/114/1 117/115/1 118/116/1
f 119/117/1 120/118/1 121/119/1 122/120/1
f 123/121/1 124/122/1 125/123/1 126/124/1
f 127/125/1 128/126/1 129/127/1 130/128/1
f 131/129/1 132/130/1 133/131/1 134/132/1
f 135/133/1 136/134/1 137/135/1 138/136/1
f 139/137/1 140/138/1 141/139/1 142/140/1
f 143/141/1 144/142/1 145/143/1 146/144/1
f 147/145/1 148/146/1 149/147/1 150/148/1
f 151/149/1 152/150/1 153/151/1 154/152/1
f 155/153/1 156/154/1 157/155/1 158/156/1
f 159/157/1 160/158/1 161/159/1 162/160/1
f 163/161/1 164/162/1 165/163/1 166/164/1
f 167/165/1 168/166/1 169/167/1 170/168/1
f 171/169/1 172/170/1 173/171/1 174/172/1
f 175/173/1 176/174/1 177/175/1 178/176/1
f 179/177/1 180/178/1 181/179/1 182/180/1
f 183/181/1 184/182/1 185/183/1 186/184/1
f 187/185/1 188/186/1 189/187/1 190/188/1
f 191/189/1 192/190/1 193/191/1 194/192/1
f 195/193/1 196/194/1 197/195/1 198/196/1
f 199/197/1 200/198/1 201/199/1 202/200/1
f 203/201/1 204/202/1 205/203/1 206/204/1
f 207/205/1 208/206/1 209/207/1 210/208/1
f 211/209/1 212/210/1 213/211/1 214/212/1
f 215/213/1 216/214/1 217/215/1 218/216/1
f 219/217/1 220/218/1 221/219/1 222/220/1
f 223/221/1 224/222/1 225/223/1 226/224/1
f 227/225/1 228/226/1 229/227/1 230/228/1
f 231/229/1 232/230/1 233/231/1 234/232/1
f 235/233/1 236/234/1 237/235/1 238/236/1
f 239/237/1 240/238/1 241/239/1 242/240/1
f 243/241/1 244/242/1 245/243/1 246/244/1
f 247/245/1 248/246/1 249/247/1 250/248/1
f 251/249/1 252/250/1 253/251/1 254/252/1
f 255/253/1 256/254/1 257/255/1 258/256/1
f 259/257/1 260/258/1 261/259/1 262/260/1
f 263/261/1 264/262/1 265/263/1 266/264/1
f 267/265/1 268/266/1 269/267/1 270/268/1
f 271/269/1 272/270/1 273/271/1 274/272/1
f 275/273/1 276/274/1 277/275/1 278/276/1
f 279/277/1 280/278/1 281/279/1 282/280/1
f 283/281/1 284/282/1 285/283/1 286/284/1
f 287/285/1 288/286/1 289/287/1 290/288/1
f 291/289/1 292/290/1 293/291/1 294/292/1
l 13 14
