# Blender v3.2.0 OBJ File: 'DungeonNewPower.blend'
# www.blender.org
mtllib WinningRoomCeiling.mtl
o WinningRoomCeiling_Plane.006
v -6.509113 0.999999 1.499861
v -5.509114 0.999999 1.499861
v -6.509113 0.999999 2.499861
v -5.509114 0.999999 2.499861
v -7.509113 0.999999 0.499861
v -6.509113 0.999999 0.499861
v -7.509113 0.999999 1.499861
v -6.509113 0.999999 1.499861
v -7.509113 0.999999 1.499861
v -6.509113 0.999999 1.499861
v -7.509113 0.999999 2.499861
v -6.509113 0.999999 2.499861
v -7.509113 0.999999 2.499861
v -6.509113 0.999999 2.499861
v -7.509113 0.999999 3.499861
v -6.509113 0.999999 3.499861
v -6.509113 0.999999 2.499861
v -5.509114 0.999999 2.499861
v -6.509113 0.999999 3.499861
v -5.509114 0.999999 3.499861
v -6.509113 0.999999 0.499861
v -5.509114 0.999999 0.499861
v -6.509113 0.999999 1.499861
v -5.509114 0.999999 1.499861
v -5.509114 0.999999 0.499861
v -4.509114 0.999999 0.499861
v -5.509114 0.999999 1.499861
v -4.509114 0.999999 1.499861
v -5.509114 0.999999 1.499861
v -4.509114 0.999999 1.499861
v -5.509114 0.999999 2.499861
v -4.509114 0.999999 2.499861
v -5.509114 0.999999 2.499861
v -4.509114 0.999999 2.499861
v -5.509114 0.999999 3.499861
v -4.509114 0.999999 3.499861
vt 0.000100 0.000100
vt 0.999900 0.000100
vt 0.999900 0.999900
vt 0.000100 0.999900
vt 0.000100 0.000100
vt 0.999900 0.000100
vt 0.999900 0.999900
vt 0.000100 0.999900
vt 0.000100 0.000100
vt 0.999900 0.000100
vt 0.999900 0.999900
vt 0.000100 0.999900
vt 0.000100 0.000100
vt 0.999900 0.000100
vt 0.999900 0.999900
vt 0.000100 0.999900
vt 0.000100 0.000100
vt 0.999900 0.000100
vt 0.999900 0.999900
vt 0.000100 0.999900
vt 0.000100 0.000100
vt 0.999900 0.000100
vt 0.999900 0.999900
vt 0.000100 0.999900
vt 0.000100 0.000100
vt 0.999900 0.000100
vt 0.999900 0.999900
vt 0.000100 0.999900
vt 0.000100 0.000100
vt 0.999900 0.000100
vt 0.999900 0.999900
vt 0.000100 0.999900
vt 0.000100 0.000100
vt 0.999900 0.000100
vt 0.999900 0.999900
vt 0.000100 0.999900
vn 0.0000 -1.0000 0.0000
usemtl Material.002
s off
f 1/1/1 2/2/1 4/3/1 3/4/1
f 5/5/1 6/6/1 8/7/1 7/8/1
f 9/9/1 10/10/1 12/11/1 11/12/1
f 13/13/1 14/14/1 16/15/1 15/16/1
f 17/17/1 18/18/1 20/19/1 19/20/1
f 21/21/1 22/22/1 24/23/1 23/24/1
f 25/25/1 26/26/1 28/27/1 27/28/1
f 29/29/1 30/30/1 32/31/1 31/32/1
f 33/33/1 34/34/1 36/35/1 35/36/1
