# Blender v3.2.2 OBJ File: 'tutorial.blend'
# www.blender.org
mtllib Play.mtl
o Play_Text.020
v 497.500000 197.724503 -500.000000
v 497.450012 197.724503 -500.000000
v 497.391998 197.598007 -500.000000
v 497.331512 197.724503 -500.000000
v 497.281006 197.724503 -500.000000
v 497.368011 197.548004 -500.000000
v 497.291504 197.384995 -500.000000
v 497.341003 197.384995 -500.000000
v 497.273010 197.539993 -500.000000
v 497.270508 197.538193 -500.000000
v 497.268097 197.536514 -500.000000
v 497.265747 197.534958 -500.000000
v 497.263458 197.533554 -500.000000
v 497.261261 197.532303 -500.000000
v 497.259186 197.531189 -500.000000
v 497.257202 197.530228 -500.000000
v 497.255371 197.529449 -500.000000
v 497.253662 197.528824 -500.000000
v 497.252106 197.528366 -500.000000
v 497.250702 197.528091 -500.000000
v 497.249512 197.528000 -500.000000
v 497.248169 197.528061 -500.000000
v 497.246948 197.528259 -500.000000
v 497.245850 197.528595 -500.000000
v 497.244843 197.529099 -500.000000
v 497.243958 197.529739 -500.000000
v 497.243195 197.530563 -500.000000
v 497.242523 197.531555 -500.000000
v 497.241974 197.532745 -500.000000
v 497.241547 197.534119 -500.000000
v 497.241241 197.535690 -500.000000
v 497.241058 197.537491 -500.000000
v 497.240997 197.539505 -500.000000
v 497.240997 197.654999 -500.000000
v 497.240265 197.667175 -500.000000
v 497.238129 197.678192 -500.000000
v 497.234650 197.688080 -500.000000
v 497.229980 197.696854 -500.000000
v 497.224182 197.704529 -500.000000
v 497.217316 197.711121 -500.000000
v 497.209503 197.716660 -500.000000
v 497.200867 197.721146 -500.000000
v 497.191437 197.724609 -500.000000
v 497.181335 197.727066 -500.000000
v 497.170654 197.728516 -500.000000
v 497.159485 197.729004 -500.000000
v 497.151550 197.728790 -500.000000
v 497.143921 197.728165 -500.000000
v 497.136597 197.727112 -500.000000
v 497.129639 197.725647 -500.000000
v 497.122955 197.723755 -500.000000
v 497.116638 197.721436 -500.000000
v 497.110596 197.718689 -500.000000
v 497.104858 197.715515 -500.000000
v 497.099457 197.711914 -500.000000
v 497.094330 197.707870 -500.000000
v 497.089508 197.703400 -500.000000
v 497.084991 197.698502 -500.000000
v 497.084991 197.649994 -500.000000
v 497.090454 197.656082 -500.000000
v 497.096008 197.661591 -500.000000
v 497.101715 197.666534 -500.000000
v 497.107513 197.670929 -500.000000
v 497.113403 197.674759 -500.000000
v 497.119385 197.678070 -500.000000
v 497.125397 197.680832 -500.000000
v 497.131470 197.683075 -500.000000
v 497.137604 197.684799 -500.000000
v 497.143738 197.686035 -500.000000
v 497.149872 197.686752 -500.000000
v 497.156006 197.686996 -500.000000
v 497.162476 197.686752 -500.000000
v 497.168365 197.686020 -500.000000
v 497.173706 197.684769 -500.000000
v 497.178497 197.682983 -500.000000
v 497.182709 197.680649 -500.000000
v 497.186371 197.677750 -500.000000
v 497.189484 197.674271 -500.000000
v 497.191986 197.670181 -500.000000
v 497.193970 197.665482 -500.000000
v 497.195374 197.660141 -500.000000
v 497.196228 197.654160 -500.000000
v 497.196503 197.647507 -500.000000
v 497.196503 197.635498 -500.000000
v 497.157013 197.621506 -500.000000
v 497.147919 197.618225 -500.000000
v 497.138824 197.614822 -500.000000
v 497.129852 197.611176 -500.000000
v 497.121155 197.607208 -500.000000
v 497.112915 197.602783 -500.000000
v 497.105255 197.597809 -500.000000
v 497.098328 197.592178 -500.000000
v 497.092346 197.585800 -500.000000
v 497.087402 197.578537 -500.000000
v 497.083679 197.570312 -500.000000
v 497.081329 197.560989 -500.000000
v 497.080505 197.550507 -500.000000
v 497.080963 197.543320 -500.000000
v 497.082275 197.536362 -500.000000
v 497.084442 197.529678 -500.000000
v 497.087433 197.523346 -500.000000
v 497.091156 197.517471 -500.000000
v 497.095612 197.512131 -500.000000
v 497.100769 197.507385 -500.000000
v 497.106567 197.503311 -500.000000
v 497.112976 197.500015 -500.000000
v 497.119965 197.497559 -500.000000
v 497.127472 197.496033 -500.000000
v 497.135498 197.495499 -500.000000
v 497.140625 197.495651 -500.000000
v 497.145752 197.496124 -500.000000
v 497.150848 197.496918 -500.000000
v 497.155975 197.498016 -500.000000
v 497.161041 197.499435 -500.000000
v 497.166138 197.501190 -500.000000
v 497.171173 197.503250 -500.000000
v 497.176208 197.505646 -500.000000
v 497.181213 197.508362 -500.000000
v 497.186157 197.511414 -500.000000
v 497.191101 197.514786 -500.000000
v 497.196014 197.518494 -500.000000
v 497.197144 197.514679 -500.000000
v 497.198547 197.511246 -500.000000
v 497.200256 197.508163 -500.000000
v 497.202271 197.505432 -500.000000
v 497.204559 197.503036 -500.000000
v 497.207184 197.501007 -500.000000
v 497.210144 197.499298 -500.000000
v 497.213409 197.497910 -500.000000
v 497.217010 197.496841 -500.000000
v 497.220978 197.496094 -500.000000
v 497.225311 197.495651 -500.000000
v 497.230011 197.495499 -500.000000
v 497.233398 197.495590 -500.000000
v 497.236633 197.495865 -500.000000
v 497.239746 197.496338 -500.000000
v 497.242828 197.497040 -500.000000
v 497.245911 197.497986 -500.000000
v 497.249054 197.499191 -500.000000
v 497.252350 197.500671 -500.000000
v 497.255859 197.502457 -500.000000
v 497.259613 197.504578 -500.000000
v 497.263672 197.507019 -500.000000
v 497.268127 197.509827 -500.000000
v 497.273010 197.513000 -500.000000
v 497.196503 197.545502 -500.000000
v 497.193481 197.542725 -500.000000
v 497.190430 197.540131 -500.000000
v 497.187317 197.537750 -500.000000
v 497.184174 197.535599 -500.000000
v 497.180969 197.533646 -500.000000
v 497.177765 197.531937 -500.000000
v 497.174469 197.530472 -500.000000
v 497.171173 197.529236 -500.000000
v 497.167816 197.528275 -500.000000
v 497.164429 197.527573 -500.000000
v 497.160980 197.527145 -500.000000
v 497.157501 197.526993 -500.000000
v 497.152985 197.527267 -500.000000
v 497.148712 197.528046 -500.000000
v 497.144684 197.529327 -500.000000
v 497.140991 197.531052 -500.000000
v 497.137604 197.533234 -500.000000
v 497.134552 197.535812 -500.000000
v 497.131927 197.538788 -500.000000
v 497.129700 197.542114 -500.000000
v 497.127899 197.545776 -500.000000
v 497.126587 197.549744 -500.000000
v 497.125763 197.554001 -500.000000
v 497.125488 197.558502 -500.000000
v 497.126160 197.564850 -500.000000
v 497.128113 197.570694 -500.000000
v 497.131256 197.576050 -500.000000
v 497.135468 197.580994 -500.000000
v 497.140656 197.585571 -500.000000
v 497.146759 197.589813 -500.000000
v 497.153625 197.593781 -500.000000
v 497.161194 197.597504 -500.000000
v 497.169373 197.601044 -500.000000
v 497.178040 197.604431 -500.000000
v 497.187134 197.607742 -500.000000
v 497.196503 197.610992 -500.000000
v 497.035004 197.841003 -500.000000
v 496.990509 197.841003 -500.000000
v 496.990509 197.500000 -500.000000
v 497.035004 197.500000 -500.000000
v 496.738007 197.841003 -500.000000
v 496.738007 197.500000 -500.000000
v 496.786987 197.500000 -500.000000
v 496.786987 197.647507 -500.000000
v 496.838013 197.647507 -500.000000
v 496.856873 197.648361 -500.000000
v 496.873962 197.650864 -500.000000
v 496.889282 197.654892 -500.000000
v 496.902924 197.660370 -500.000000
v 496.914856 197.667175 -500.000000
v 496.925110 197.675186 -500.000000
v 496.933746 197.684326 -500.000000
v 496.940735 197.694458 -500.000000
v 496.946136 197.705505 -500.000000
v 496.949982 197.717346 -500.000000
v 496.952240 197.729889 -500.000000
v 496.953003 197.742996 -500.000000
v 496.952301 197.756271 -500.000000
v 496.950134 197.769012 -500.000000
v 496.946533 197.781097 -500.000000
v 496.941437 197.792404 -500.000000
v 496.934814 197.802826 -500.000000
v 496.926697 197.812256 -500.000000
v 496.916992 197.820541 -500.000000
v 496.905731 197.827591 -500.000000
v 496.892883 197.833282 -500.000000
v 496.878418 197.837494 -500.000000
v 496.862274 197.840103 -500.000000
v 496.844513 197.841003 -500.000000
v 496.786987 197.796997 -500.000000
v 496.844513 197.796997 -500.000000
v 496.854980 197.796448 -500.000000
v 496.864258 197.794891 -500.000000
v 496.872345 197.792389 -500.000000
v 496.879303 197.789078 -500.000000
v 496.885254 197.785034 -500.000000
v 496.890198 197.780380 -500.000000
v 496.894196 197.775192 -500.000000
v 496.897339 197.769592 -500.000000
v 496.899689 197.763672 -500.000000
v 496.901306 197.757538 -500.000000
v 496.902222 197.751282 -500.000000
v 496.902496 197.744995 -500.000000
v 496.902008 197.736801 -500.000000
v 496.900604 197.729233 -500.000000
v 496.898254 197.722290 -500.000000
v 496.895050 197.716019 -500.000000
v 496.891022 197.710419 -500.000000
v 496.886200 197.705505 -500.000000
v 496.880585 197.701294 -500.000000
v 496.874268 197.697815 -500.000000
v 496.867279 197.695084 -500.000000
v 496.859619 197.693100 -500.000000
v 496.851349 197.691910 -500.000000
v 496.842499 197.691498 -500.000000
v 496.786987 197.691498 -500.000000
vt 0.714286 0.000000
vt 0.428571 0.000000
vt 0.571429 0.000000
vt 0.285714 0.000000
vt 0.000000 0.000000
vt 0.142857 0.000000
vt 1.000000 0.000000
vt 0.857143 0.000000
vt 0.219653 0.000000
vt 0.208092 0.000000
vt 0.213873 0.000000
vt 0.225434 0.000000
vt 0.202312 0.000000
vt 0.231214 0.000000
vt 0.236994 0.000000
vt 0.196532 0.000000
vt 0.242775 0.000000
vt 0.190751 0.000000
vt 0.248555 0.000000
vt 0.254335 0.000000
vt 0.184971 0.000000
vt 0.260116 0.000000
vt 0.179191 0.000000
vt 0.265896 0.000000
vt 0.271676 0.000000
vt 0.173410 0.000000
vt 0.277457 0.000000
vt 0.167630 0.000000
vt 0.283237 0.000000
vt 0.289017 0.000000
vt 0.294798 0.000000
vt 0.300578 0.000000
vt 0.306358 0.000000
vt 0.312139 0.000000
vt 0.317919 0.000000
vt 0.323699 0.000000
vt 0.329480 0.000000
vt 0.335260 0.000000
vt 0.341040 0.000000
vt 0.346821 0.000000
vt 0.352601 0.000000
vt 0.358382 0.000000
vt 0.161850 0.000000
vt 0.364162 0.000000
vt 0.156069 0.000000
vt 0.369942 0.000000
vt 0.375723 0.000000
vt 0.381503 0.000000
vt 0.387283 0.000000
vt 0.393064 0.000000
vt 0.150289 0.000000
vt 0.398844 0.000000
vt 0.404624 0.000000
vt 0.410405 0.000000
vt 0.144509 0.000000
vt 0.416185 0.000000
vt 0.421965 0.000000
vt 0.138728 0.000000
vt 0.427746 0.000000
vt 0.433526 0.000000
vt 0.439306 0.000000
vt 1.000000 0.000000
vt 0.445087 0.000000
vt 0.450867 0.000000
vt 0.456647 0.000000
vt 0.462428 0.000000
vt 0.994220 0.000000
vt 0.791907 0.000000
vt 0.988439 0.000000
vt 0.468208 0.000000
vt 0.982659 0.000000
vt 0.473988 0.000000
vt 0.976879 0.000000
vt 0.479769 0.000000
vt 0.971098 0.000000
vt 0.965318 0.000000
vt 0.485549 0.000000
vt 0.959538 0.000000
vt 0.491329 0.000000
vt 0.953757 0.000000
vt 0.947977 0.000000
vt 0.497110 0.000000
vt 0.942197 0.000000
vt 0.936416 0.000000
vt 0.502890 0.000000
vt 0.930636 0.000000
vt 0.508671 0.000000
vt 0.924855 0.000000
vt 0.919075 0.000000
vt 0.514451 0.000000
vt 0.913295 0.000000
vt 0.907514 0.000000
vt 0.797688 0.000000
vt 0.520231 0.000000
vt 0.803468 0.000000
vt 0.901734 0.000000
vt 0.809249 0.000000
vt 0.005780 0.000000
vt 0.786127 0.000000
vt 0.000000 0.000000
vt 0.132948 0.000000
vt 0.895954 0.000000
vt 0.011561 0.000000
vt 0.815029 0.000000
vt 0.127168 0.000000
vt 0.017341 0.000000
vt 0.526012 0.000000
vt 0.890173 0.000000
vt 0.121387 0.000000
vt 0.820809 0.000000
vt 0.023121 0.000000
vt 0.115607 0.000000
vt 0.826590 0.000000
vt 0.028902 0.000000
vt 0.884393 0.000000
vt 0.109827 0.000000
vt 0.034682 0.000000
vt 0.832370 0.000000
vt 0.104046 0.000000
vt 0.040462 0.000000
vt 0.878613 0.000000
vt 0.098266 0.000000
vt 0.838150 0.000000
vt 0.046243 0.000000
vt 0.092486 0.000000
vt 0.531792 0.000000
vt 0.052023 0.000000
vt 0.872832 0.000000
vt 0.843931 0.000000
vt 0.086705 0.000000
vt 0.057803 0.000000
vt 0.080925 0.000000
vt 0.063584 0.000000
vt 0.849711 0.000000
vt 0.075145 0.000000
vt 0.069364 0.000000
vt 0.867052 0.000000
vt 0.855491 0.000000
vt 0.861272 0.000000
vt 0.647399 0.000000
vt 0.537572 0.000000
vt 0.641618 0.000000
vt 0.653179 0.000000
vt 0.543353 0.000000
vt 0.635838 0.000000
vt 0.658960 0.000000
vt 0.780347 0.000000
vt 0.549133 0.000000
vt 0.630058 0.000000
vt 0.664740 0.000000
vt 0.774566 0.000000
vt 0.624277 0.000000
vt 0.670520 0.000000
vt 0.554913 0.000000
vt 0.768786 0.000000
vt 0.618497 0.000000
vt 0.676301 0.000000
vt 0.763006 0.000000
vt 0.560694 0.000000
vt 0.612717 0.000000
vt 0.682081 0.000000
vt 0.757225 0.000000
vt 0.606936 0.000000
vt 0.687861 0.000000
vt 0.751445 0.000000
vt 0.566474 0.000000
vt 0.601156 0.000000
vt 0.693642 0.000000
vt 0.745665 0.000000
vt 0.595376 0.000000
vt 0.739884 0.000000
vt 0.699422 0.000000
vt 0.572254 0.000000
vt 0.734104 0.000000
vt 0.589595 0.000000
vt 0.705202 0.000000
vt 0.728324 0.000000
vt 0.583815 0.000000
vt 0.710983 0.000000
vt 0.578035 0.000000
vt 0.722543 0.000000
vt 0.716763 0.000000
vt 0.666667 0.000000
vt 0.000000 0.000000
vt 0.333333 0.000000
vt 1.000000 0.000000
vt 0.018182 0.000000
vt 0.527273 0.000000
vt 0.000000 0.000000
vt 0.509091 0.000000
vt 0.490909 0.000000
vt 0.472727 0.000000
vt 0.454545 0.000000
vt 0.436364 0.000000
vt 0.418182 0.000000
vt 0.400000 0.000000
vt 0.381818 0.000000
vt 0.545455 0.000000
vt 0.363636 0.000000
vt 1.000000 0.000000
vt 0.563636 0.000000
vt 0.581818 0.000000
vt 0.600000 0.000000
vt 0.345455 0.000000
vt 0.618182 0.000000
vt 0.636364 0.000000
vt 0.654545 0.000000
vt 0.327273 0.000000
vt 0.672727 0.000000
vt 0.690909 0.000000
vt 0.709091 0.000000
vt 0.309091 0.000000
vt 0.727273 0.000000
vt 0.745455 0.000000
vt 0.290909 0.000000
vt 0.763636 0.000000
vt 0.781818 0.000000
vt 0.272727 0.000000
vt 0.800000 0.000000
vt 0.254545 0.000000
vt 0.818182 0.000000
vt 0.836364 0.000000
vt 0.236364 0.000000
vt 0.854545 0.000000
vt 0.872727 0.000000
vt 0.218182 0.000000
vt 0.890909 0.000000
vt 0.909091 0.000000
vt 0.927273 0.000000
vt 0.945455 0.000000
vt 0.200000 0.000000
vt 0.963636 0.000000
vt 0.981818 0.000000
vt 0.054545 0.000000
vt 0.181818 0.000000
vt 0.163636 0.000000
vt 0.145455 0.000000
vt 0.127273 0.000000
vt 0.109091 0.000000
vt 0.090909 0.000000
vt 0.072727 0.000000
vt 0.036364 0.000000
vn 0.0000 0.0000 1.0000
usemtl None
s off
f 6/1/1 4/2/1 5/3/1
f 6/1/1 3/4/1 4/2/1
f 3/4/1 1/5/1 2/6/1
f 3/4/1 8/7/1 1/5/1
f 6/1/1 8/7/1 3/4/1
f 7/8/1 8/7/1 6/1/1
f 47/9/1 45/10/1 46/11/1
f 48/12/1 45/10/1 47/9/1
f 48/12/1 44/13/1 45/10/1
f 49/14/1 44/13/1 48/12/1
f 50/15/1 44/13/1 49/14/1
f 50/15/1 43/16/1 44/13/1
f 51/17/1 43/16/1 50/15/1
f 51/17/1 42/18/1 43/16/1
f 52/19/1 42/18/1 51/17/1
f 53/20/1 42/18/1 52/19/1
f 53/20/1 41/21/1 42/18/1
f 54/22/1 41/21/1 53/20/1
f 54/22/1 40/23/1 41/21/1
f 55/24/1 40/23/1 54/22/1
f 56/25/1 40/23/1 55/24/1
f 56/25/1 39/26/1 40/23/1
f 57/27/1 39/26/1 56/25/1
f 57/27/1 38/28/1 39/26/1
f 58/29/1 38/28/1 57/27/1
f 59/30/1 60/31/1 58/29/1
f 60/31/1 61/32/1 58/29/1
f 61/32/1 62/33/1 58/29/1
f 62/33/1 63/34/1 58/29/1
f 63/34/1 64/35/1 58/29/1
f 64/35/1 65/36/1 58/29/1
f 65/36/1 66/37/1 58/29/1
f 66/37/1 67/38/1 58/29/1
f 67/38/1 68/39/1 58/29/1
f 68/39/1 69/40/1 58/29/1
f 69/40/1 38/28/1 58/29/1
f 69/40/1 70/41/1 38/28/1
f 70/41/1 71/42/1 38/28/1
f 71/42/1 37/43/1 38/28/1
f 71/42/1 72/44/1 37/43/1
f 72/44/1 36/45/1 37/43/1
f 73/46/1 36/45/1 72/44/1
f 74/47/1 36/45/1 73/46/1
f 75/48/1 36/45/1 74/47/1
f 76/49/1 36/45/1 75/48/1
f 77/50/1 36/45/1 76/49/1
f 77/50/1 35/51/1 36/45/1
f 78/52/1 35/51/1 77/50/1
f 79/53/1 35/51/1 78/52/1
f 80/54/1 35/51/1 79/53/1
f 80/54/1 34/55/1 35/51/1
f 81/56/1 34/55/1 80/54/1
f 82/57/1 34/55/1 81/56/1
f 82/57/1 33/58/1 34/55/1
f 83/59/1 33/58/1 82/57/1
f 84/60/1 33/58/1 83/59/1
f 85/61/1 182/62/1 84/60/1
f 182/62/1 33/58/1 84/60/1
f 86/63/1 182/62/1 85/61/1
f 87/64/1 182/62/1 86/63/1
f 88/65/1 182/62/1 87/64/1
f 89/66/1 182/62/1 88/65/1
f 89/66/1 181/67/1 182/62/1
f 146/68/1 33/58/1 182/62/1
f 89/66/1 180/69/1 181/67/1
f 90/70/1 180/69/1 89/66/1
f 90/70/1 179/71/1 180/69/1
f 91/72/1 179/71/1 90/70/1
f 91/72/1 178/73/1 179/71/1
f 92/74/1 178/73/1 91/72/1
f 92/74/1 177/75/1 178/73/1
f 92/74/1 176/76/1 177/75/1
f 93/77/1 176/76/1 92/74/1
f 93/77/1 175/78/1 176/76/1
f 94/79/1 175/78/1 93/77/1
f 94/79/1 174/80/1 175/78/1
f 94/79/1 173/81/1 174/80/1
f 95/82/1 173/81/1 94/79/1
f 95/82/1 172/83/1 173/81/1
f 95/82/1 171/84/1 172/83/1
f 96/85/1 171/84/1 95/82/1
f 96/85/1 170/86/1 171/84/1
f 97/87/1 170/86/1 96/85/1
f 97/87/1 169/88/1 170/86/1
f 97/87/1 168/89/1 169/88/1
f 98/90/1 168/89/1 97/87/1
f 98/90/1 167/91/1 168/89/1
f 98/90/1 166/92/1 167/91/1
f 147/93/1 33/58/1 146/68/1
f 99/94/1 166/92/1 98/90/1
f 148/95/1 33/58/1 147/93/1
f 99/94/1 165/96/1 166/92/1
f 149/97/1 33/58/1 148/95/1
f 10/98/1 145/99/1 9/100/1
f 149/97/1 32/101/1 33/58/1
f 99/94/1 164/102/1 165/96/1
f 11/103/1 145/99/1 10/98/1
f 150/104/1 32/101/1 149/97/1
f 150/104/1 31/105/1 32/101/1
f 12/106/1 145/99/1 11/103/1
f 100/107/1 164/102/1 99/94/1
f 100/107/1 163/108/1 164/102/1
f 150/104/1 30/109/1 31/105/1
f 151/110/1 30/109/1 150/104/1
f 13/111/1 145/99/1 12/106/1
f 151/110/1 29/112/1 30/109/1
f 152/113/1 29/112/1 151/110/1
f 14/114/1 145/99/1 13/111/1
f 100/107/1 162/115/1 163/108/1
f 152/113/1 28/116/1 29/112/1
f 15/117/1 145/99/1 14/114/1
f 153/118/1 28/116/1 152/113/1
f 153/118/1 27/119/1 28/116/1
f 16/120/1 145/99/1 15/117/1
f 100/107/1 161/121/1 162/115/1
f 153/118/1 26/122/1 27/119/1
f 154/123/1 26/122/1 153/118/1
f 17/124/1 145/99/1 16/120/1
f 154/123/1 25/125/1 26/122/1
f 101/126/1 161/121/1 100/107/1
f 18/127/1 145/99/1 17/124/1
f 101/126/1 160/128/1 161/121/1
f 155/129/1 25/125/1 154/123/1
f 155/129/1 24/130/1 25/125/1
f 19/131/1 145/99/1 18/127/1
f 155/129/1 23/132/1 24/130/1
f 20/133/1 145/99/1 19/131/1
f 156/134/1 23/132/1 155/129/1
f 156/134/1 22/135/1 23/132/1
f 21/136/1 145/99/1 20/133/1
f 156/134/1 21/136/1 22/135/1
f 101/126/1 159/137/1 160/128/1
f 156/134/1 145/99/1 21/136/1
f 157/138/1 145/99/1 156/134/1
f 101/126/1 158/139/1 159/137/1
f 158/139/1 145/99/1 157/138/1
f 101/126/1 121/140/1 158/139/1
f 121/140/1 145/99/1 158/139/1
f 102/141/1 121/140/1 101/126/1
f 102/141/1 120/142/1 121/140/1
f 122/143/1 145/99/1 121/140/1
f 103/144/1 120/142/1 102/141/1
f 103/144/1 119/145/1 120/142/1
f 123/146/1 145/99/1 122/143/1
f 123/146/1 144/147/1 145/99/1
f 104/148/1 119/145/1 103/144/1
f 104/148/1 118/149/1 119/145/1
f 124/150/1 144/147/1 123/146/1
f 124/150/1 143/151/1 144/147/1
f 104/148/1 117/152/1 118/149/1
f 125/153/1 143/151/1 124/150/1
f 105/154/1 117/152/1 104/148/1
f 125/153/1 142/155/1 143/151/1
f 105/154/1 116/156/1 117/152/1
f 126/157/1 142/155/1 125/153/1
f 126/157/1 141/158/1 142/155/1
f 106/159/1 116/156/1 105/154/1
f 106/159/1 115/160/1 116/156/1
f 127/161/1 141/158/1 126/157/1
f 127/161/1 140/162/1 141/158/1
f 106/159/1 114/163/1 115/160/1
f 128/164/1 140/162/1 127/161/1
f 128/164/1 139/165/1 140/162/1
f 107/166/1 114/163/1 106/159/1
f 107/166/1 113/167/1 114/163/1
f 129/168/1 139/165/1 128/164/1
f 129/168/1 138/169/1 139/165/1
f 107/166/1 112/170/1 113/167/1
f 129/168/1 137/171/1 138/169/1
f 130/172/1 137/171/1 129/168/1
f 108/173/1 112/170/1 107/166/1
f 130/172/1 136/174/1 137/171/1
f 108/173/1 111/175/1 112/170/1
f 131/176/1 136/174/1 130/172/1
f 131/176/1 135/177/1 136/174/1
f 108/173/1 110/178/1 111/175/1
f 132/179/1 135/177/1 131/176/1
f 109/180/1 110/178/1 108/173/1
f 132/179/1 134/181/1 135/177/1
f 133/182/1 134/181/1 132/179/1
f 185/183/1 183/184/1 184/185/1
f 185/183/1 186/186/1 183/184/1
f 188/187/1 216/188/1 187/189/1
f 216/188/1 215/190/1 187/189/1
f 216/188/1 214/191/1 215/190/1
f 216/188/1 213/192/1 214/191/1
f 216/188/1 212/193/1 213/192/1
f 216/188/1 211/194/1 212/193/1
f 216/188/1 210/195/1 211/194/1
f 216/188/1 209/196/1 210/195/1
f 216/188/1 208/197/1 209/196/1
f 216/188/1 217/198/1 208/197/1
f 217/198/1 207/199/1 208/197/1
f 188/187/1 242/200/1 216/188/1
f 218/201/1 207/199/1 217/198/1
f 219/202/1 207/199/1 218/201/1
f 220/203/1 207/199/1 219/202/1
f 220/203/1 206/204/1 207/199/1
f 221/205/1 206/204/1 220/203/1
f 222/206/1 206/204/1 221/205/1
f 223/207/1 206/204/1 222/206/1
f 223/207/1 205/208/1 206/204/1
f 224/209/1 205/208/1 223/207/1
f 225/210/1 205/208/1 224/209/1
f 226/211/1 205/208/1 225/210/1
f 226/211/1 204/212/1 205/208/1
f 227/213/1 204/212/1 226/211/1
f 228/214/1 204/212/1 227/213/1
f 228/214/1 203/215/1 204/212/1
f 229/216/1 203/215/1 228/214/1
f 230/217/1 203/215/1 229/216/1
f 230/217/1 202/218/1 203/215/1
f 231/219/1 202/218/1 230/217/1
f 231/219/1 201/220/1 202/218/1
f 232/221/1 201/220/1 231/219/1
f 233/222/1 201/220/1 232/221/1
f 233/222/1 200/223/1 201/220/1
f 234/224/1 200/223/1 233/222/1
f 235/225/1 200/223/1 234/224/1
f 235/225/1 199/226/1 200/223/1
f 236/227/1 199/226/1 235/225/1
f 237/228/1 199/226/1 236/227/1
f 238/229/1 199/226/1 237/228/1
f 239/230/1 199/226/1 238/229/1
f 239/230/1 198/231/1 199/226/1
f 240/232/1 198/231/1 239/230/1
f 241/233/1 198/231/1 240/232/1
f 188/187/1 190/234/1 242/200/1
f 190/234/1 241/233/1 242/200/1
f 190/234/1 198/231/1 241/233/1
f 190/234/1 197/235/1 198/231/1
f 190/234/1 196/236/1 197/235/1
f 190/234/1 195/237/1 196/236/1
f 190/234/1 194/238/1 195/237/1
f 190/234/1 193/239/1 194/238/1
f 190/234/1 192/240/1 193/239/1
f 190/234/1 191/241/1 192/240/1
f 188/187/1 189/242/1 190/234/1
